<svg xmlns="http://www.w3.org/2000/svg" width="550mm" height="2352.745" viewBox="0 0 550 622.497"><path d="M-2114.147-361.216h-469.9l44.053 477.705 190.87 54.134 190.871-54.134z" style="fill:#e6a329;stroke-width:.26458332" transform="translate(3024.528 422.79) scale(1.17046)"/><path d="M-2349.123-322.296v452.438l154.649-43.815 37.623-408.623z" style="fill:#f1bf22;stroke-width:.26458332" transform="translate(3024.528 422.79) scale(1.17046)"/><path d="M-2226.092-263.69h-237.781l-16.563 178.858.344-1.112h202.01l-6.589 75.671-64.452 18.547-65.405-18.838-3.916-45.8h-59.373l8.467 91.52 120.227 34.131 120.28-34.13 16.562-179.627h-214.392l2.752-59.848h148.749l2.222 34.29h59.902z" style="fill:#fff;stroke-width:.26458332" transform="translate(3024.528 422.79) scale(1.17046)"/><path d="M-2349.07-263.69h-114.803l-16.563 178.858.344-1.112h131.022v-58.34h-69.242l2.752-59.85h66.49zm-69.242 207.327h-59.505l8.467 91.466 120.227 34.079V8.327l-65.405-18.89z" style="fill:#ebebeb;stroke-width:.26458332" transform="translate(3024.528 422.79) scale(1.17046)"/></svg>