<svg xmlns="http://www.w3.org/2000/svg" width="600mm" height="1235.422" viewBox="0 0 600 326.872"><path d="M-1297.588 704.025c-11.31 3.691-23.473 4.826-35.288 6.895-3.216.563-6.61.061-9.855.511-25.203 3.497-34.726 13.592-38.286 40.428-1.894 14.286-5.654 27.863-13.852 40.018-13.852 20.53-40.761 29.846-63.791 21.826-24.652-8.586-39.587-31.056-37.594-56.568 1.795-22.985 19.95-43.292 45.446-49.194 11.939-2.763 24.326-3.843 36.575-4.96 22.863-2.078 32.963-12.102 36.771-34.584 2.192-12.935.24-25.14-2.63-37.341-4.382-18.65-17.96-27.315-40.758-28.974-12.44-.907-25.097-2.712-37.001-6.289-25.06-7.535-39.65-29.29-38.495-54.812 1.013-22.348 19.212-44.107 41.073-49.104 25.899-5.923 51.68 4.434 62.696 27.5 5.78 12.103 8.953 25.814 11.218 39.152 4.052 23.916 13.554 33.195 37.406 35.788 15.43 1.678 31.15 3.59 45.861 8.194 22.341 6.991 35.762 27.811 35.757 50.949 0 22.634-13.854 43.583-35.253 50.565z" style="fill:#62dafb;stroke:#000;stroke-width:.54400003;stroke-miterlimit:4;stroke-dasharray:none;stroke-opacity:1" transform="translate(1743.654 -489.968)"/><path d="M-1560.669 707.7c-29.949.005-54.4-24.439-54.404-54.383 0-29.947 24.439-54.4 54.383-54.404 29.947-.005 54.397 24.439 54.402 54.383 0 29.947-24.439 54.4-54.38 54.404zm-128.772 108.794c-29.924-.075-54.287-24.603-54.212-54.575.075-29.923 24.6-54.287 54.572-54.21 29.924.073 54.287 24.6 54.212 54.573-.075 29.923-24.6 54.287-54.573 54.212zm491.802 0c-30 .171-54.632-24.094-54.803-53.984-.17-29.999 24.095-54.632 53.985-54.8 30-.174 54.63 24.089 54.803 53.982.17 29.998-24.095 54.631-53.985 54.802z" style="fill:#424242;stroke-width:2.34379148" transform="translate(1743.654 -489.968)"/></svg>