<?xml version="1.0" encoding="UTF-8" standalone="no"?>
<!-- Created with Inkscape (http://www.inkscape.org/) -->

<svg
   xmlns:dc="http://purl.org/dc/elements/1.1/"
   xmlns:cc="http://creativecommons.org/ns#"
   xmlns:rdf="http://www.w3.org/1999/02/22-rdf-syntax-ns#"
   xmlns:svg="http://www.w3.org/2000/svg"
   xmlns="http://www.w3.org/2000/svg"
   xmlns:sodipodi="http://sodipodi.sourceforge.net/DTD/sodipodi-0.dtd"
   xmlns:inkscape="http://www.inkscape.org/namespaces/inkscape"
   width="600mm"
   height="326.87195mm"
   viewBox="0 0 600 326.87195"
   version="1.1"
   id="svg988"
   inkscape:version="0.92.2 (5c3e80d, 2017-08-06)"
   sodipodi:docname="react-router.svg">
  <defs
     id="defs982" />
  <sodipodi:namedview
     id="base"
     pagecolor="#ffffff"
     bordercolor="#666666"
     borderopacity="1.0"
     inkscape:pageopacity="0.0"
     inkscape:pageshadow="2"
     inkscape:zoom="0.0875"
     inkscape:cx="2738.7285"
     inkscape:cy="1683.8378"
     inkscape:document-units="mm"
     inkscape:current-layer="layer1"
     showgrid="false"
     fit-margin-top="0"
     fit-margin-left="0"
     fit-margin-right="0"
     fit-margin-bottom="0"
     inkscape:window-width="1920"
     inkscape:window-height="1009"
     inkscape:window-x="-4"
     inkscape:window-y="-4"
     inkscape:window-maximized="1"
     inkscape:pagecheckerboard="true" />
  <metadata
     id="metadata985">
    <rdf:RDF>
      <cc:Work
         rdf:about="">
        <dc:format>image/svg+xml</dc:format>
        <dc:type
           rdf:resource="http://purl.org/dc/dcmitype/StillImage" />
        <dc:title></dc:title>
      </cc:Work>
    </rdf:RDF>
  </metadata>
  <g
     inkscape:label="Layer 1"
     inkscape:groupmode="layer"
     id="layer1"
     transform="translate(1743.6536,-489.9676)">
    <g
       id="g1747">
      <path
         id="path837"
         d="m -1297.5877,704.02491 c -11.3111,3.69147 -23.473,4.82586 -35.2881,6.89543 -3.2157,0.56251 -6.6095,0.0609 -9.8556,0.51095 -25.2028,3.49694 -34.7257,13.59165 -38.2859,40.42806 -1.8938,14.28541 -5.6532,27.86299 -13.8518,40.0179 -13.8518,20.52927 -40.7609,29.84584 -63.791,21.82538 -24.652,-8.5853 -39.5866,-31.05523 -37.5944,-56.56741 1.7954,-22.98556 19.9504,-43.29217 45.4461,-49.19384 11.9393,-2.76333 24.3263,-3.84382 36.5749,-4.95946 22.8637,-2.07894 32.9631,-12.10334 36.7718,-34.58499 2.1914,-12.93538 0.239,-25.13951 -2.6298,-37.34129 -4.3829,-18.64955 -17.9605,-27.31454 -40.7585,-28.97395 -12.4409,-0.90705 -25.0973,-2.71177 -37.0015,-6.28839 -25.0598,-7.53529 -39.6499,-29.29037 -38.4944,-54.81191 1.0125,-22.34805 19.2121,-44.10782 41.0726,-49.10478 25.8989,-5.92276 51.6806,4.43445 62.6964,27.49971 5.7798,12.10334 8.9533,25.81452 11.2174,39.15304 4.0524,23.91605 13.5542,33.19512 37.4069,35.78735 15.4292,1.67815 31.149,3.59069 45.861,8.1939 22.341,6.99153 35.7616,27.81143 35.7569,50.94934 0,22.63399 -13.8542,43.5828 -35.253,50.56496 z"
         inkscape:connector-curvature="0"
         style="fill:#62dafb;stroke:#000000;stroke-width:0.54400003;stroke-miterlimit:4;stroke-dasharray:none;stroke-opacity:1" />
      <path
         id="path839"
         d="m -1560.6689,707.69997 c -29.949,0.005 -54.3994,-24.43871 -54.4041,-54.38299 0,-29.94663 24.4387,-54.39941 54.383,-54.40409 29.9466,-0.005 54.3971,24.43871 54.4018,54.38299 0,29.94663 -24.4388,54.3994 -54.3807,54.40409 z m -128.7726,108.79412 c -29.9232,-0.075 -54.2869,-24.60278 -54.2119,-54.57519 0.075,-29.92318 24.6004,-54.2869 54.5728,-54.20955 29.9232,0.0727 54.2869,24.60043 54.2119,54.57284 -0.075,29.92319 -24.6004,54.2869 -54.5728,54.2119 z m 491.8025,0 c -30.0006,0.1711 -54.6315,-24.09418 -54.8026,-53.98455 -0.1711,-29.99819 24.0942,-54.63144 53.9846,-54.80019 30.0005,-0.17344 54.6291,24.08949 54.8025,53.98221 0.1711,29.99818 -24.0941,54.63143 -53.9845,54.80253 z"
         inkscape:connector-curvature="0"
         style="fill:#424242;stroke-width:2.34379148" />
    </g>
  </g>
</svg>
