<svg xmlns="http://www.w3.org/2000/svg" width="550mm" height="1868.956" viewBox="0 0 550 494.495"><path d="M-699.357 706.02c0 49.645 48.479 95.99 124.905 122.113-15.262 76.832-2.734 138.761 39.107 162.89 43.006 24.804 107.077 7.635 167.89-45.524 59.278 51.012 119.186 71.088 160.99 46.889 42.968-24.874 56.034-91.001 40.35-170.233 79.605-26.318 124.133-65.836 124.133-116.136 0-48.493-48.566-90.445-123.964-116.401 16.884-82.506 2.578-142.931-40.996-168.058-42.009-24.225-102.615-3.11-162.764 49.235-62.577-55.56-122.584-72.522-166.112-47.325-41.97 24.294-53.945 87.35-38.634 165.603-73.848 25.746-124.905 68.649-124.905 116.946z" style="fill:#fff;stroke-width:2.58371377" transform="translate(585.125 -344.34) scale(.83666)"/><path d="M-181.914 615.393a391.081 391.081 0 0 0-18.794-5.922 355.26 355.26 0 0 0 2.905-12.818c14.225-69.057 4.924-124.69-26.84-143.003-30.454-17.564-80.263.75-130.568 44.525a390.492 390.492 0 0 0-14.536 13.34 355.45 355.45 0 0 0-9.673-8.935c-52.721-46.811-105.566-66.536-137.296-48.168-30.426 17.613-39.438 69.915-26.63 135.36a389.908 389.908 0 0 0 4.314 19.337c-7.477 2.124-14.699 4.388-21.608 6.796-61.807 21.548-101.281 55.322-101.281 90.352 0 36.182 42.373 72.473 106.754 94.476a331.852 331.852 0 0 0 15.786 4.935 381.906 381.906 0 0 0-4.586 20.843c-12.21 64.308-2.674 115.37 27.672 132.875 31.343 18.073 83.947-.504 135.172-45.28a330.728 330.728 0 0 0 12.182-11.228 383.268 383.268 0 0 0 15.781 14.399c49.618 42.696 98.62 59.937 128.94 42.385 31.315-18.127 41.49-72.982 28.277-139.722a330.68 330.68 0 0 0-3.501-15.605c3.695-1.09 7.32-2.217 10.857-3.39 66.928-22.173 110.471-58.023 110.471-94.688 0-35.157-40.745-69.158-103.798-90.864z" style="fill:#53c1de;stroke-width:2.58371377" transform="translate(585.125 -344.34) scale(.83666)"/><path d="M-196.432 777.273a325.548 325.548 0 0 1-9.805 3.067c-7.39-23.39-17.362-48.264-29.563-73.959 11.645-25.088 21.23-49.64 28.414-72.881a367.188 367.188 0 0 1 17.354 5.477c54.026 18.595 86.978 46.094 86.978 67.28 0 22.569-35.59 51.868-93.375 71.016zm-23.976 47.512c5.841 29.511 6.676 56.193 2.806 77.051-3.478 18.743-10.47 31.237-19.115 36.242-18.398 10.65-57.746-3.193-100.176-39.706a357.557 357.557 0 0 1-14.68-13.384c16.45-17.993 32.89-38.91 48.935-62.138 28.225-2.504 54.889-6.6 79.07-12.188a308.41 308.41 0 0 1 3.16 14.123zM-462.89 936.239c-17.975 6.348-32.291 6.529-40.944 1.54-18.417-10.62-26.07-51.623-15.629-106.618a357.862 357.862 0 0 1 4.263-19.383c23.912 5.29 50.383 9.095 78.674 11.39 16.151 22.728 33.067 43.62 50.114 61.916a307.108 307.108 0 0 1-11.123 10.241c-22.651 19.802-45.35 33.847-65.352 40.914zm-84.21-159.106c-28.468-9.73-51.977-22.375-68.092-36.172-14.48-12.401-21.791-24.713-21.791-34.704 0-21.256 31.694-48.372 84.554-66.802a359.85 359.85 0 0 1 20.094-6.322c7.307 23.762 16.89 48.607 28.454 73.731-11.714 25.499-21.434 50.74-28.808 74.78a307.224 307.224 0 0 1-14.412-4.51zm28.229-192.15c-10.973-56.075-3.687-98.373 14.65-108.987 19.532-11.306 62.719 4.816 108.239 45.234a326.066 326.066 0 0 1 8.759 8.087c-16.96 18.212-33.72 38.946-49.732 61.544-27.457 2.545-53.74 6.632-77.904 12.107a365.66 365.66 0 0 1-4.012-17.988zm251.827 62.182a793.154 793.154 0 0 0-17.753-29.196c18.628 2.351 36.474 5.477 53.232 9.304-5.03 16.125-11.301 32.986-18.685 50.271a869.213 869.213 0 0 0-16.794-30.38zM-369.74 547.139c11.502 12.461 23.023 26.377 34.355 41.474a734.408 734.408 0 0 0-69-.016c11.342-14.957 22.961-28.852 34.645-41.458zm-103.354 100.196a736.979 736.979 0 0 0-16.479 30.191c-7.263-17.226-13.477-34.162-18.551-50.517 16.657-3.728 34.42-6.774 52.927-9.087a733.232 733.232 0 0 0-17.897 29.413zm18.43 149.037c-19.12-2.134-37.152-5.026-53.804-8.65 5.155-16.645 11.506-33.945 18.923-51.54a732.467 732.467 0 0 0 16.552 30.208 737.056 737.056 0 0 0 18.329 29.982zm85.614 70.765c-11.82-12.756-23.61-26.863-35.126-42.037a870.33 870.33 0 0 0 34.157.662c11.9 0 23.664-.267 35.242-.783-11.369 15.45-22.848 29.578-34.273 42.158zm119.036-131.852c7.803 17.786 14.381 34.994 19.606 51.357-16.929 3.862-35.203 6.973-54.46 9.283a872.099 872.099 0 0 0 17.923-29.708 792.25 792.25 0 0 0 16.931-30.932zm-38.536 18.474a817.689 817.689 0 0 1-28.007 45.189c-17.321 1.237-35.221 1.876-53.462 1.876-18.166 0-35.839-.566-52.858-1.67a707.416 707.416 0 0 1-28.532-45.258 701.05 701.05 0 0 1-24.907-47.04 707.586 707.586 0 0 1 24.832-47.064v.005a700.838 700.838 0 0 1 28.307-45.066c17.363-1.312 35.165-2 53.16-2 18.076 0 35.9.693 53.258 2.016a751.096 751.096 0 0 1 28.13 44.913 817.534 817.534 0 0 1 25.167 46.842 751.36 751.36 0 0 1-25.085 47.256zm51.45-278.504c19.548 11.275 27.152 56.74 14.87 116.365a329.488 329.488 0 0 1-2.626 11.606c-24.22-5.588-50.522-9.748-78.06-12.332-16.041-22.842-32.662-43.613-49.348-61.59a366.68 366.68 0 0 1 13.425-12.314c43.101-37.51 83.384-52.32 101.739-41.735z" style="fill:#fff;stroke-width:2.58371377" transform="translate(585.125 -344.34) scale(.83666)"/><path d="M-370.018 654.125c28.793 0 52.131 23.342 52.131 52.132 0 28.793-23.338 52.134-52.131 52.134-28.79 0-52.132-23.341-52.132-52.134 0-28.79 23.341-52.132 52.132-52.132" style="fill:#53c1de;stroke-width:2.58371377" transform="translate(585.125 -344.34) scale(.83666)"/></svg>