<?xml version="1.0" encoding="UTF-8" standalone="no"?>
<svg
   xmlns:dc="http://purl.org/dc/elements/1.1/"
   xmlns:cc="http://creativecommons.org/ns#"
   xmlns:rdf="http://www.w3.org/1999/02/22-rdf-syntax-ns#"
   xmlns:svg="http://www.w3.org/2000/svg"
   xmlns="http://www.w3.org/2000/svg"
   xmlns:sodipodi="http://sodipodi.sourceforge.net/DTD/sodipodi-0.dtd"
   xmlns:inkscape="http://www.inkscape.org/namespaces/inkscape"
   inkscape:version="1.0 (4035a4fb49, 2020-05-01)"
   sodipodi:docname="experienceimg2.svg"
   id="svg8"
   version="1.1"
   viewBox="0 0 86.383911 105.03886"
   height="105.03886mm"
   width="86.383911mm">
  <defs
     id="defs2" />
  <sodipodi:namedview
     fit-margin-bottom="0"
     fit-margin-right="0"
     fit-margin-left="0"
     fit-margin-top="0"
     inkscape:window-maximized="0"
     inkscape:window-y="0"
     inkscape:window-x="26"
     inkscape:window-height="1041"
     inkscape:window-width="1570"
     showgrid="false"
     inkscape:document-rotation="0"
     inkscape:current-layer="layer1"
     inkscape:document-units="mm"
     inkscape:cy="239.09719"
     inkscape:cx="264.88397"
     inkscape:zoom="0.98994949"
     inkscape:pageshadow="2"
     inkscape:pageopacity="0.0"
     borderopacity="1.0"
     bordercolor="#666666"
     pagecolor="#ffffff"
     id="base" />
  <metadata
     id="metadata5">
    <rdf:RDF>
      <cc:Work
         rdf:about="">
        <dc:format>image/svg+xml</dc:format>
        <dc:type
           rdf:resource="http://purl.org/dc/dcmitype/StillImage" />
        <dc:title></dc:title>
      </cc:Work>
    </rdf:RDF>
  </metadata>
  <g
     transform="translate(66.711673,7.3508781)"
     id="layer1"
     inkscape:groupmode="layer"
     inkscape:label="Warstwa 1">
    <path
       style="fill:#f8a412;fill-opacity:1;stroke-width:0.264583"
       id="Path_73"
       data-name="Path 73"
       d="m -28.850069,6.7768142 c -0.84455,0.9596437 1.355989,2.6804937 2.772039,2.7222979 1.41605,0.041804 3.761581,-1.298575 2.756429,-1.9685 -1.005152,-0.669925 -3.686439,-2.847975 -5.528468,-0.7537979 z"
       fill="#f2f2f2" />
    <path
       style="fill:#f8a412;fill-opacity:1;stroke-width:0.264583"
       id="Path_74"
       data-name="Path 74"
       d="m -14.40382,-4.6994877 c 0,0 0.46355,5.69621448 1.971411,6.3661395 1.50786,0.669925 3.4623372,-0.67018961 2.9040664,-2.17805 -0.5582704,-1.5078604 -1.2292544,-6.8392145 -1.2292544,-6.8392145 0,0 -4.028281,-0.082285 -3.646223,2.651125 z"
       fill="#f2f2f2" />
    <path
       style="fill:#f8a412;fill-opacity:1;stroke-width:0.264583"
       id="Path_75"
       data-name="Path 75"
       d="m -1.2082552,-2.7532128 c -1.8888604,-0.7268104 -6.0663666,3.17632292 -6.4222312,5.4692021 -0.3558646,2.2928791 3.456252,4.7275749 -3.1271106,7.9975607 -6.583362,3.269985 -4.524375,6.032499 -2.17805,8.711935 2.346325,2.679435 12.73254383,8.711935 15.7482646,6.533885 C 5.8283384,23.78132 15.453615,16.745256 10.220951,8.0333204 4.9882863,-0.67861487 -0.70634066,2.3371059 -0.70634066,0.49428303 c 0,-1.84282293 1.50865414,-2.47385413 -0.50191454,-3.24749583 z"
       fill="#f2f2f2" />
    <path
       style="fill:#f8a412;fill-opacity:1;stroke-width:0.264583"
       id="Path_76"
       data-name="Path 76"
       d="M 14.037301,2.6995851 C 13.127928,3.1493768 8.8437946,5.2517559 11.021051,5.888608 13.198307,6.52546 14.037301,5.2210642 15.712113,4.9517184 17.386926,4.6823726 16.446597,1.5065789 14.037301,2.6995851 Z"
       fill="#f2f2f2" />
    <path
       style="stroke-width:0.264583"
       id="Path_77"
       data-name="Path 77"
       d="m -7.6304864,32.660472 c 1.0683875,1.153848 7.23794156,0 5.9086749,-1.423987 -1.3292666,-1.423988 -7.3046166,-0.08361 -5.9086749,1.423987 z"
       fill="#f2f2f2" />
    <path
       style="stroke-width:0.264583"
       id="Path_78"
       data-name="Path 78"
       d="m -7.9932302,35.676193 c 0.753798,0.334963 6.3809562,1.726671 5.5776812,0.167746 -0.803275,-1.558925 -4.8236187,-1.508125 -4.8236187,0.167746"
       fill="#f2f2f2" />
    <path
       style="stroke-width:0.264583"
       id="Path_79"
       data-name="Path 79"
       d="m -44.26443,73.036153 c 0,0 2.178844,1.340115 3.853657,-1.340115 1.674812,-2.680229 7.750704,-11.895402 8.566149,-12.39811 0.815446,-0.502708 -3.940175,-3.4925 -5.08,-1.74625 -1.139825,1.74625 -8.512439,14.311577 -7.339806,15.484475 z"
       fill="#f2f2f2" />
    <path
       style="stroke-width:0.264583"
       id="Path_80"
       data-name="Path 80"
       d="m -11.762749,69.019513 c 0,0 -9.746191,8.334375 -14.296496,6.697134 -2.791883,-1.005417 0.546365,-5.152496 1.982788,-6.331479 1.436423,-1.178984 -4.655344,2.813314 -7.228152,2.143125 -2.572808,-0.67019 2.841096,-8.110538 5.245364,-8.718286 2.404269,-0.607748 16.6896524,4.282281 14.296496,6.209506 z"
       fill="#f2f2f2" />
    <path
       style="stroke-width:0.264583"
       id="Path_81"
       data-name="Path 81"
       d="m -17.961407,90.794457 c 0,0 0.696912,3.350683 3.531394,1.675342 2.834481,-1.675342 12.3147661,-9.21438 12.014464,-10.554494 -0.3003021,-1.340115 -0.9704916,-4.858279 -6.4992249,0.334962 -5.5287331,5.193242 -9.0466331,8.54419 -9.0466331,8.54419 z"
       fill="#f2f2f2" />
    <path
       style="stroke-width:0.264583"
       id="Path_82"
       data-name="Path 82"
       d="m -26.548195,59.130711 c 0.516203,6.320896 9.717088,2.354792 8.241507,-0.190235 -2.640277,-4.552421 -7.476596,6.394979 -7.892521,8.298921 -0.103452,0.473869 0.623094,0.675481 0.727075,0.200554 0.348192,-1.594115 1.151731,-3.152246 1.895739,-4.589198 0.655109,-1.265502 2.007923,-4.194175 3.734859,-4.192323 a 0.95249999,0.95249999 0 0 1 0.765175,1.461294 c -0.466196,0.721519 -1.4478,1.159669 -2.2225,1.434042 -2.157677,0.764381 -4.291806,0.0844 -4.496594,-2.423319 -0.03916,-0.480483 -0.79375,-0.484188 -0.753798,0 z"
       fill="#35357e" />
    <path
       style="stroke-width:0.264583"
       id="Path_83"
       data-name="Path 83"
       d="m -24.427824,56.924616 c -2.875227,1.178983 -1.845204,-3.481652 -1.160991,-4.835261 0.818356,-1.618456 2.586302,-3.344068 4.482835,-2.456391 0.657225,0.307445 -1.339056,0.811212 -1.534583,0.835025 -0.954882,0.116681 -1.878542,-0.300832 -2.596092,-0.909902 -1.235869,-1.049073 -0.298979,-2.57519 0.598752,-3.451225 1.159933,-1.131623 2.69875,-1.580357 4.276196,-1.680634 4.3942,-0.279929 8.410575,3.031861 8.557683,7.501202 0.01587,0.484717 0.769673,0.486569 0.753798,0 -0.190235,-5.767916 -6.224323,-9.633479 -11.636639,-7.855743 -1.702594,0.559329 -3.567907,2.016125 -3.876146,3.877468 -0.310886,1.880923 1.78435,3.175 3.413125,3.290094 0.625475,0.04392 4.120356,-0.718344 2.816754,-1.956329 -1.805252,-1.7145 -4.156604,-0.04524 -5.309129,1.532731 a 7.6483103,7.6483103 0 0 0 -1.431131,5.113338 c 0.139964,1.658408 1.327414,2.345795 2.846652,1.722702 0.442912,-0.182298 0.249237,-0.911755 -0.200555,-0.727075 z"
       fill="#35357e" />
    <path
       style="stroke-width:0.264583"
       id="Path_84"
       data-name="Path 84"
       d="m -11.804818,51.424457 a 2.9479875,2.9479875 0 0 0 2.037292,2.751667 c 0.7283979,0.255852 2.2815021,0.295275 2.4942271,-0.710142 0.1669521,-0.789252 -0.6315604,-1.473464 -1.2229042,-1.832504 a 3.126052,3.126052 0 0 0 -2.9538079,-0.200025 c -0.439738,0.207169 -0.05689,0.856721 0.38047,0.65114 a 2.295525,2.295525 0 0 1 1.9423067,0.06694 c 0.4497917,0.207169 1.0054166,0.582084 1.1215687,1.097757 0.1058334,0.462756 -1.27635,0.276489 -1.4224,0.2413 a 2.1550312,2.1550312 0 0 1 -1.6224254,-2.066396 c -0.01217,-0.485511 -0.765968,-0.486834 -0.753797,0 z"
       fill="#35357e" />
    <path
       style="stroke-width:0.264583"
       id="Path_85"
       data-name="Path 85"
       d="m -11.694222,51.49272 c -6.418791,8.166629 -4.817798,19.54821 1.595702,27.211866 3.3935461,4.055269 8.2150481,6.923352 13.451946,7.736681 4.9212499,0.764382 10.842889,-0.442912 13.802254,-4.808537 2.571221,-3.793596 4.418542,-12.715346 -0.917575,-15.121202 -0.439208,-0.197908 -0.823119,0.451379 -0.380471,0.65114 4.545277,2.049198 3.047736,9.126008 1.440392,12.651316 -2.525448,5.54011 -9.3440251,6.763808 -14.7785667,5.720821 C -8.3318968,83.452534 -16.076251,72.131278 -14.979024,61.330193 a 18.127398,18.127398 0 0 1 3.817673,-9.304338 c 0.296863,-0.377825 -0.232833,-0.915193 -0.532871,-0.533135 z"
       fill="#35357e" />
    <path
       style="stroke-width:0.264583"
       id="Path_86"
       data-name="Path 86"
       d="m -6.2570343,80.230438 a 11.392694,11.392694 0 0 0 2.4354895,1.378215 c 0.4497917,0.185208 0.6432021,-0.544248 0.2002896,-0.727075 a 10.676731,10.676731 0 0 1 -2.2555729,-1.302544 c -0.3915833,-0.28866 -0.7672917,0.365919 -0.3802062,0.651404 z"
       fill="#35357e" />
    <path
       style="stroke-width:0.264583"
       id="Path_87"
       data-name="Path 87"
       d="m 2.7126051,84.456628 c 2.968625,0.470694 5.7512479,-0.04498 8.4992099,-1.210734 0.446353,-0.189177 0.06165,-0.838464 -0.38047,-0.651139 -2.5365608,1.07606 -5.177367,1.569244 -7.9187149,1.134798 -0.47625,-0.07514 -0.67945,0.651139 -0.200025,0.727075 z"
       fill="#35357e" />
    <path
       style="stroke-width:0.264583"
       id="Path_88"
       data-name="Path 88"
       d="m 13.800763,82.18174 0.502709,-0.502708 a 0.3768904,0.3768904 0 0 0 -0.533136,-0.532871 l -0.502708,0.502709 a 0.37698367,0.37698367 0 0 0 0.533135,0.533135 z"
       fill="#35357e" />
    <path
       style="stroke-width:0.264583"
       id="Path_89"
       data-name="Path 89"
       d="m -17.961672,42.586845 a 4.1978791,4.1978791 0 0 1 1.820069,0.283633 c 0.437885,0.203465 0.820208,-0.446087 0.380471,-0.651139 a 5.0307874,5.0307874 0 0 0 -2.20054,-0.386556 0.37703125,0.37703125 0 0 0 0,0.753797 z"
       fill="#35357e" />
    <path
       style="stroke-width:0.264583"
       id="Path_90"
       data-name="Path 90"
       d="m -12.265457,44.764895 a 0.32517291,0.32517291 0 0 1 0.179916,0.0852 0.26087916,0.26087916 0 0 1 0.0852,0.109008 c 0.05503,0.0934 -0.01164,-0.05054 0.02037,0.05133 0.03201,0.101865 0.0037,-0.05794 0.0077,0.04763 a 0.37703125,0.37703125 0 1 0 0.753798,0 1.1025187,1.1025187 0 0 0 -1.046956,-1.047221 0.3770315,0.3770315 0 0 0 0,0.754063 z"
       fill="#35357e" />
    <path
       style="stroke-width:0.264583"
       id="Path_91"
       data-name="Path 91"
       d="m -27.94493,64.895453 c -0.981869,0.999067 -3.136371,3.177381 -1.649412,4.56565 1.30757,1.220787 3.983302,-0.702469 5.366808,-0.919956 l -0.47625,-0.363273 c 0.05292,2.037291 -2.998258,5.427133 0.79375,5.619221 2.201862,0.111654 4.398962,-0.833702 6.288616,-1.863196 1.914261,-1.042723 3.735388,-2.456656 5.013061,-4.235979 0.284162,-0.396875 -0.370417,-0.771525 -0.650875,-0.380736 -2.160058,3.008048 -6.262952,5.410994 -9.960504,5.709179 -0.495036,0.03995 -1.699419,0.167746 -1.925638,-0.442118 -0.15875,-0.42889 0.196586,-1.090613 0.353748,-1.475582 0.387615,-0.947208 0.86995,-1.881716 0.842698,-2.931054 a 0.38364583,0.38364583 0 0 0 -0.47625,-0.363273 c -1.218935,0.191823 -2.323835,0.846667 -3.518958,1.148292 -1.226873,0.308769 -1.621631,-0.515673 -1.048015,-1.571625 a 9.1985041,9.1985041 0 0 1 1.581415,-1.962415 c 0.340783,-0.346868 -0.192088,-0.880268 -0.533136,-0.53287 z"
       fill="#35357e" />
    <path
       style="stroke-width:0.264583"
       id="Path_92"
       data-name="Path 92"
       d="m -37.631326,82.516967 c 1.886215,-2.116666 3.590925,-4.384675 5.474229,-6.503458 a 33.543345,33.543345 0 0 1 6.686286,-5.699654 c 4.622006,-3.039798 9.957329,-4.633383 15.31567,-5.794375 0.4762504,-0.102658 0.2735796,-0.829469 -0.200289,-0.727075 -5.453327,1.180571 -10.765631,2.840567 -15.496117,5.869252 a 33.798933,33.798933 0 0 0 -6.552141,5.501217 c -2.022211,2.184664 -3.780631,4.597929 -5.761038,6.8199 -0.322527,0.36195 0.209021,0.896937 0.533136,0.533135 z"
       fill="#35357e" />
    <path
       style="stroke-width:0.264583"
       id="Path_93"
       data-name="Path 93"
       d="m -16.644047,74.03178 c 0.505619,0.243681 1.459707,0.601398 1.359694,1.319213 -0.05292,0.375179 -0.351102,0.738187 -0.557212,1.043516 a 7.2702207,7.2702207 0 0 0 -1.143794,2.237581 0.38073541,0.38073541 0 0 0 0.46355,0.46355 c 1.090612,-0.296862 2.19366,-0.798248 3.339835,-0.79375 0.333375,0.0016 -0.767291,3.066786 -0.801158,3.445405 a 0.377825,0.377825 0 0 0 0.47625,0.363272 c 1.42875,-0.547158 2.891366,1.015207 3.8168789,1.906323 1.146175,1.103313 2.1878396,2.292615 3.3853438,3.343011 3.8629166,3.389577 7.5871915,6.935258 11.5300123,10.234347 0.3704167,0.309563 0.9061979,-0.220662 0.5331354,-0.533135 -4.1775062,-3.496204 -8.180652,-7.210954 -12.2335394,-10.850298 -1.3324417,-1.196446 -2.4421041,-2.611702 -3.826933,-3.757083 -0.929482,-0.767292 -2.169584,-1.543579 -3.404923,-1.070769 l 0.47625,0.363273 c 0.07646,-0.880004 1.717675,-3.28586 0.651139,-4.011348 -1.056216,-0.718343 -3.074722,0.341048 -4.143639,0.632354 l 0.46355,0.46355 c 0.321733,-1.236397 1.354137,-2.076185 1.701006,-3.280833 0.3175,-1.100666 -0.905933,-1.784614 -1.706562,-2.169583 -0.435769,-0.211667 -0.818357,0.439473 -0.380471,0.650875 z"
       fill="#35357e" />
    <path
       style="stroke-width:0.264583"
       id="Path_94"
       data-name="Path 94"
       d="m -63.431111,72.67288 c -4.683125,-0.676804 -1.575593,-7.14031 -0.319616,-9.5631 a 26.936435,26.936435 0 0 1 2.936875,-4.60375 c 1.789906,-2.202127 4.365625,-3.958166 6.682052,-5.546725 4.960408,-3.399631 10.742083,-6.390216 16.638587,-7.749116 0.949325,-0.218811 1.990989,-0.390525 2.950633,-0.144992 0.547688,0.140229 0.786606,0.560388 0.805656,1.097756 0.04313,1.194065 -0.976047,1.378215 -1.823508,0.8636 -1.806575,-1.096962 0.249767,-5.132916 0.964936,-6.604529 0.40296,-0.829998 2.468297,-4.957762 3.370791,-2.802996 0.420423,1.005417 -0.0058,2.085446 -0.763852,2.779713 -0.04921,0.04524 -0.78105,0.546364 -0.843492,0.390525 -0.154781,-0.387879 0.430742,-1.113631 0.620977,-1.404673 0.26723,-0.408252 -0.386027,-0.785548 -0.650875,-0.380735 -0.385233,0.589227 -1.41896,2.905654 0.313532,2.513541 1.42531,-0.321469 2.277533,-1.880658 2.225146,-3.251994 -0.04816,-1.271322 -1.015207,-2.641864 -2.3368,-1.83806 -1.453357,0.883973 -2.321719,2.988469 -2.983971,4.463256 -0.711994,1.585913 -1.764506,3.87694 -1.277144,5.60705 0.430477,1.527175 2.68314,2.164027 3.645165,0.860161 0.98372,-1.3335 -0.137848,-2.944019 -1.547284,-3.117057 -1.75551,-0.21537 -3.580871,0.370417 -5.22896,0.914136 a 59.40716,59.40716 0 0 0 -14.104408,6.913033 c -3.144838,2.083858 -6.301581,4.434417 -8.428567,7.593542 -1.882246,2.798762 -7.640108,12.786254 -1.045104,13.738754 0.474663,0.068 0.679715,-0.658284 0.200025,-0.727605 z"
       fill="#35357e" />
    <path
       style="stroke-width:0.264583"
       id="Path_95"
       data-name="Path 95"
       d="m -55.311842,51.781909 a 18.570839,18.570839 0 0 1 1.302279,2.423055 c 0.182827,0.442912 0.912548,0.248973 0.727075,-0.200555 a 19.771519,19.771519 0 0 0 -1.378214,-2.60297 0.37729583,0.37729583 0 0 0 -0.65114,0.38047 z"
       fill="#35357e" />
    <path
       style="stroke-width:0.264583"
       id="Path_96"
       data-name="Path 96"
       d="m -50.491398,48.843976 c 0.485245,1.158346 0.854868,2.360083 1.340114,3.518958 0.185209,0.441325 0.914665,0.24765 0.727075,-0.200554 -0.485246,-1.158346 -0.854869,-2.360083 -1.340114,-3.518958 -0.185209,-0.44159 -0.914665,-0.24765 -0.727075,0.200554 z"
       fill="#35357e" />
    <path
       style="stroke-width:0.264583"
       id="Path_97"
       data-name="Path 97"
       d="m -46.30278,44.488141 c 0.489744,1.5875 1.139825,3.118379 1.675077,4.691062 0.155575,0.457729 0.883973,0.261144 0.727075,-0.200554 -0.535252,-1.572683 -1.185333,-3.102239 -1.675077,-4.691062 -0.142875,-0.463021 -0.870479,-0.264584 -0.727075,0.200554 z"
       fill="#35357e" />
    <path
       style="stroke-width:0.264583"
       id="Path_98"
       data-name="Path 98"
       d="m -30.368778,37.54177 c 0.389467,-0.762529 1.183217,-1.795462 2.159794,-1.300956 0.982927,0.497681 0.465931,1.89865 0.303477,2.664619 -0.187325,0.881856 -0.820208,1.77112 -1.388533,2.445279 -0.351102,0.417512 -0.767292,0.803804 -1.335617,0.829733 -1.195917,0.05424 -0.815446,-1.217083 -0.300567,-1.7145 0.350044,-0.338402 -0.183356,-0.871008 -0.533135,-0.533135 -0.934773,0.904081 -1.103048,2.814373 0.587375,2.97762 1.722437,0.166423 2.877873,-1.832504 3.47636,-3.186112 0.51435,-1.164167 1.002242,-3.17791 -0.295804,-4.045744 -1.357312,-0.907521 -2.712244,0.284427 -3.324225,1.481667 -0.220927,0.432064 0.429419,0.813329 0.650611,0.380471 z"
       fill="#35357e" />
    <path
       style="stroke-width:0.264583"
       id="Path_99"
       data-name="Path 99"
       d="m -26.741605,37.115262 c 0.130969,-0.164042 0.617273,-0.875771 0.859102,-0.54954 0.281781,0.379942 0.308769,0.980811 0.340519,1.430867 0.06985,0.990335 0.05953,2.298435 -0.451644,3.185319 a 0.37729583,0.37729583 0 0 0 0.650875,0.380735 c 0.708554,-1.228725 0.681302,-3.055408 0.455613,-4.4069 -0.08282,-0.495565 -0.281782,-1.146969 -0.786871,-1.364721 -0.654844,-0.282575 -1.232165,0.328084 -1.600729,0.791104 -0.299509,0.376502 0.230187,0.913607 0.53287,0.533136 z"
       fill="#35357e" />
    <path
       style="stroke-width:0.264583"
       id="Path_100"
       data-name="Path 100"
       d="m -24.504817,38.546922 c 0.9525,-1.503892 1.788318,-3.073929 2.791354,-4.5466 1.041664,-1.528498 2.561431,-3.557323 4.589462,-3.643577 l -0.363273,-0.276754 c 0.479425,2.17514 -1.366573,4.728104 -2.478352,6.439429 -1.305719,2.010833 -2.811462,3.877733 -4.293394,5.758656 -0.297656,0.377296 0.232569,0.914665 0.533136,0.533136 1.589087,-2.01639 3.185054,-4.021667 4.584964,-6.17855 1.195652,-1.840442 2.892425,-4.4323 2.38125,-6.75349 a 0.37570833,0.37570833 0 0 0 -0.363273,-0.276754 c -1.919287,0.08149 -3.379522,1.554427 -4.486804,2.989792 -1.35255,1.753923 -2.364581,3.708664 -3.545416,5.573448 -0.261409,0.41275 0.391583,0.79031 0.65061,0.381 z"
       fill="#35357e" />
    <path
       style="stroke-width:0.264583"
       id="Path_101"
       data-name="Path 101"
       d="m -26.673342,44.011097 c -1.103577,-0.05689 -1.730375,-1.097492 -1.174486,-2.083329 0.768615,-1.364192 2.551642,0.257704 2.63525,1.287727 0.178329,2.201069 -1.549929,4.617508 -2.672291,6.383337 -2.678642,4.214548 -5.88354,8.305007 -9.6266,11.621294 -2.01639,1.786467 -4.37859,3.372115 -7.064375,3.882496 -2.026444,0.384969 -6.955631,-0.663311 -4.477809,-3.486679 1.081882,-1.232959 2.88978,-1.592792 4.422246,-1.854729 2.156354,-0.368565 4.395523,-0.205053 6.5659,-0.08546 a 25.00921,25.00921 0 0 1 6.934994,1.388798 c 2.491846,0.878417 5.285581,2.435754 5.936721,5.203296 0.111125,0.473075 0.8382,0.272521 0.727075,-0.200554 -1.063096,-4.519348 -6.818048,-6.159236 -10.784417,-6.838421 a 32.613335,32.613335 0 0 0 -9.004035,-0.274902 c -2.081477,0.23495 -5.23875,0.9525 -6.056313,3.246966 -0.671777,1.884627 0.896938,3.062552 2.541852,3.518959 2.205832,0.611452 4.497917,0.01535 6.494463,-0.963613 4.729162,-2.319602 8.328025,-6.880489 11.409098,-11.011429 a 54.139835,54.139835 0 0 0 3.711574,-5.549371 c 0.892705,-1.568185 2.338917,-4.131204 1.478757,-5.984081 -0.668073,-1.438275 -2.804584,-2.06666 -3.8227,-0.663046 -1.045369,1.443038 0.310621,3.139811 1.825625,3.217598 0.486039,0.02487 0.483393,-0.728927 0,-0.753798 z"
       fill="#35357e" />
    <path
       style="stroke-width:0.264583"
       id="Path_102"
       data-name="Path 102"
       d="m -10.14588,38.217516 a 10.3632,10.3632 0 0 0 2.3198665,0.180975 0.37703125,0.37703125 0 1 0 0,-0.753798 9.0241436,9.0241436 0 0 1 -2.0989395,-0.153988 c -0.47281,-0.110331 -0.694267,0.61648 -0.221192,0.727075 z"
       fill="#35357e" />
    <path
       style="stroke-width:0.264583"
       id="Path_103"
       data-name="Path 103"
       d="m -6.7650343,37.787303 c 0.2664354,1.64174 -0.052917,4.357423 -2.1298958,4.567238 -2.1510629,0.216958 -3.0691669,-3.496733 -2.6722919,-5.069681 0.119592,-0.471488 -0.608541,-0.671513 -0.727075,-0.200555 -0.555625,2.197365 0.714375,6.049169 3.3988377,6.024034 2.6722916,-0.02487 3.1813499,-3.518959 2.8575,-5.52159 -0.077258,-0.478896 -0.8035396,-0.274902 -0.7265459,0.200554 z"
       fill="#35357e" />
    <path
       style="stroke-width:0.264583"
       id="Path_104"
       data-name="Path 104"
       d="m -11.739995,36.858351 c -0.968904,-0.457993 -1.490398,-1.794404 -0.334962,-2.364581 0.436033,-0.215106 0.05292,-0.865187 -0.380471,-0.651139 -1.64809,0.813064 -1.145381,2.966772 0.334962,3.666595 0.437092,0.20664 0.820209,-0.443177 0.380471,-0.651139 z"
       fill="#35357e" />
    <path
       style="stroke-width:0.264583"
       id="Path_105"
       data-name="Path 105"
       d="m -12.332661,33.972541 c -2.702719,-0.967846 -1.402292,-3.708929 -0.909373,-5.735108 0.115093,-0.472282 -0.612246,-0.672836 -0.727075,-0.200554 -0.61939,2.545291 -1.793081,5.506508 1.436158,6.662472 0.458523,0.164307 0.654315,-0.564356 0.20029,-0.72681 z"
       fill="#35357e" />
    <path
       style="stroke-width:0.264583"
       id="Path_106"
       data-name="Path 106"
       d="m -13.074818,28.069951 c 0.990865,-5.096933 -2.712243,-9.302485 -3.86662,-14.021329 C -18.253243,8.6852538 -14.69539,4.4617101 -9.6034843,3.342258 -4.6663594,2.2574663 1.0359406,4.3368267 2.721601,9.4057142 3.6277989,12.130922 3.2621447,15.3808 2.248526,18.020283 a 11.680296,11.680296 0 0 1 -2.94375417,4.321969 c -1.14749793,1.070239 -2.78473953,1.293283 -3.96319373,2.345531 -0.3630083,0.324379 0.1719792,0.855927 0.5331354,0.533135 1.1718396,-1.046692 2.7643667,-1.31736 3.96319374,-2.345531 C 1.0504926,21.835574 1.9487531,20.430902 2.6371989,19.006649 A 14.2748,14.2748 0 0 0 3.8259718,10.901404 C 3.029576,5.7967976 -1.1344365,2.7339809 -6.106751,2.3519226 c -4.243652,-0.3259667 -8.902171,1.4951604 -10.951633,5.3871812 -2.681817,5.0924352 1.05066,10.2295852 2.735791,14.9304372 0.602192,1.680104 0.8636,3.435615 0.520436,5.200121 -0.09208,0.47625 0.635,0.677333 0.727075,0.200289 z"
       fill="#35357e" />
    <path
       style="stroke-width:0.264583"
       id="Path_107"
       data-name="Path 107"
       d="m -15.379868,26.225012 c 3.303852,3.193256 9.5845316,4.687623 12.6542274,0.426244 0.2849562,-0.395288 -0.3704167,-0.770996 -0.650875,-0.380471 -2.7704521,3.845718 -8.5563604,2.237581 -11.4704814,-0.578909 -0.34925,-0.337608 -0.883179,0.194998 -0.532871,0.533136 z"
       fill="#35357e" />
    <path
       style="stroke-width:0.264583"
       id="Path_108"
       data-name="Path 108"
       d="m -15.806111,29.132783 c 2.562225,1.360487 8.0933392,3.960018 10.23276,0.702468 0.2677583,-0.407987 -0.3852333,-0.785018 -0.650875,-0.380735 -1.8057812,2.74955 -7.081837,0.152665 -9.201414,-0.972873 -0.42889,-0.227806 -0.810155,0.423333 -0.380471,0.65114 z"
       fill="#35357e" />
    <path
       style="stroke-width:0.264583"
       id="Path_109"
       data-name="Path 109"
       d="m -10.226843,27.064535 c 0.4452941,-2.949575 2.196042,-5.500952 2.592917,-8.460317 0.2185458,-1.632214 0.4619625,-3.766873 -1.49225,-4.322233 -1.375833,-0.39079 -2.36511,0.679979 -1.833298,1.989931 0.721254,1.776148 3.2522584,2.001308 4.8635709,1.722438 1.4943667,-0.258498 4.4039895,-1.277409 4.0425687,-3.342217 -0.3516312,-2.007129 -2.8392437,-0.578644 -3.5001729,0.394229 -1.0961687,1.613958 -1.4073187,3.772958 -1.6478249,5.662083 -0.1026584,0.808303 -0.6847417,4.637882 0.5326062,4.942682 0.4717521,0.118004 0.6717771,-0.608542 0.2002896,-0.727075 -0.269875,-0.06747 -0.096044,-2.915709 -0.074083,-3.242469 a 20.727987,20.727987 0 0 1 0.6987646,-4.044685 c 0.3558646,-1.307307 0.9244542,-2.780507 2.3426208,-3.230827 1.050925,-0.333375 0.635,0.82497 0.4397375,1.186391 a 2.54,2.54 0 0 1 -1.0847916,0.993511 6.3968312,6.3968312 0 0 1 -2.3963313,0.71067 c -1.2885208,0.163777 -3.2070145,-0.03466 -3.7695186,-1.419225 -0.419894,-1.033727 0.8307916,-0.983456 1.4398624,-0.717285 0.6908271,0.30189 0.6405563,1.420019 0.6273271,2.019829 -0.076465,3.45149 -2.2031855,6.331215 -2.7090695,9.682427 -0.0717,0.47625 0.65458,0.680244 0.727075,0.200819 z"
       fill="#35357e" />
    <path
       style="stroke-width:0.264583"
       id="Path_110"
       data-name="Path 110"
       d="m -14.620513,10.90405 c 0.724958,-1.6166046 1.564745,-3.3366608 3.048,-4.388115 0.392906,-0.2786062 0.0172,-0.9329208 -0.380471,-0.6511395 -1.603904,1.1377083 -2.531798,2.9045958 -3.318404,4.6585185 -0.19738,0.439738 0.452437,0.823383 0.650875,0.380736 z"
       fill="#35357e" />
    <path
       style="stroke-width:0.264583"
       id="Path_111"
       data-name="Path 111"
       d="m -8.7245385,5.6782642 c 0.4717521,-0.2283354 1.0257896,-0.4479396 1.552575,-0.2973916 a 0.37729583,0.37729583 0 0 0 0.2002896,-0.727075 c -0.7318375,-0.20955 -1.4747875,0.05424 -2.1330708,0.3727979 -0.4378854,0.2116666 -0.055033,0.862277 0.3802062,0.6514041 z"
       fill="#35357e" />
    <path
       style="stroke-width:0.264583"
       id="Path_112"
       data-name="Path 112"
       d="m -11.237551,8.5262392 c 0.320675,-0.1494896 0.681567,-0.1852083 1.005417,-0.3349625 a 0.37808958,0.37808958 0 0 0 0.135202,-0.5156729 0.38470416,0.38470416 0 0 0 -0.515673,-0.1354667 c -0.320675,0.1494896 -0.681567,0.1852083 -1.005417,0.3349625 a 0.37808958,0.37808958 0 0 0 -0.135202,0.5159375 0.38496875,0.38496875 0 0 0 0.515673,0.1352021 z"
       fill="#35357e" />
    <path
       style="stroke-width:0.264583"
       id="Path_113"
       data-name="Path 113"
       d="m -24.663038,9.9179475 c 1.5875,-0.010583 3.190346,-0.1563687 4.758531,0.1539875 0.474662,0.09393 0.677069,-0.6326187 0.200289,-0.727075 -1.639093,-0.3243792 -3.299883,-0.1923521 -4.958556,-0.1812396 a 0.37729583,0.37729583 0 0 0 0,0.7540625 z"
       fill="#35357e" />
    <path
       style="stroke-width:0.264583"
       id="Path_114"
       data-name="Path 114"
       d="m -19.701572,7.6885684 a 2.8395083,2.8395083 0 0 0 1.321065,0.2188104 0.37703125,0.37703125 0 1 0 0,-0.7537979 2.3357416,2.3357416 0 0 1 -0.961496,-0.1161521 c -0.437356,-0.2058458 -0.799306,0.4439708 -0.359569,0.6511396 z"
       fill="#35357e" />
    <path
       style="stroke-width:0.264583"
       id="Path_115"
       data-name="Path 115"
       d="m -13.29892,-4.5989461 c 0.359834,1.7033875 0.9525,3.3602083 1.15914,5.09322913 0.05662,0.47625 0.811212,0.48233542 0.753798,0 -0.214048,-1.80472293 -0.811742,-3.52133953 -1.186392,-5.29351863 -0.100277,-0.47625 -0.827087,-0.2738438 -0.72681,0.2002895 z"
       fill="#35357e" />
    <path
       style="stroke-width:0.264583"
       id="Path_116"
       data-name="Path 116"
       d="M -3.4281094,-1.5162857 A 3.527425,3.527425 0 0 1 -3.877901,0.30378304 c -0.2579688,0.41380833 0.3942291,0.79189786 0.650875,0.38073541 a 4.2862499,4.2862499 0 0 0 0.5540374,-2.20053955 0.37703125,0.37703125 0 0 0 -0.7537979,0 z"
       fill="#35357e" />
    <path
       style="stroke-width:0.264583"
       id="Path_117"
       data-name="Path 117"
       d="M 3.5055614,7.6885684 A 18.846006,18.846006 0 0 1 6.5985405,6.5537705 0.37729583,0.37729583 0 0 0 6.3982509,5.8266955 19.944556,19.944556 0 0 0 3.1253551,7.0371642 C 2.688528,7.2512121 3.070851,7.9012934 3.5055614,7.6885684 Z"
       fill="#35357e" />
    <path
       style="stroke-width:0.264583"
       id="Path_118"
       data-name="Path 118"
       d="m -30.526469,78.941653 a 0.47228124,0.47228124 0 0 0 0.544512,-0.544513 0.37703125,0.37703125 0 0 0 -0.753798,0 c 0,0.03651 -0.01773,0.153723 0.0074,0.01773 a 0.31035625,0.31035625 0 0 1 0.283634,-0.228335 c -0.02646,0.0026 -0.05477,0 -0.08176,0 a 0.37703125,0.37703125 0 0 0 0,0.753798 z"
       fill="#35357e" />
    <path
       style="stroke-width:0.264583"
       id="Path_119"
       data-name="Path 119"
       d="m -28.432557,75.633568 v 0 a 0.37703125,0.37703125 0 0 0 -0.753798,0 v 0 a 0.37703125,0.37703125 0 1 0 0.753798,0 z"
       fill="#35357e" />
  </g>
</svg>
