<?xml version="1.0" encoding="UTF-8" standalone="no"?>
<!-- Created with Inkscape (http://www.inkscape.org/) -->

<svg
   xmlns:dc="http://purl.org/dc/elements/1.1/"
   xmlns:cc="http://creativecommons.org/ns#"
   xmlns:rdf="http://www.w3.org/1999/02/22-rdf-syntax-ns#"
   xmlns:svg="http://www.w3.org/2000/svg"
   xmlns="http://www.w3.org/2000/svg"
   xmlns:sodipodi="http://sodipodi.sourceforge.net/DTD/sodipodi-0.dtd"
   xmlns:inkscape="http://www.inkscape.org/namespaces/inkscape"
   width="550mm"
   height="550mm"
   viewBox="0 0 550 550"
   version="1.1"
   id="svg1272"
   inkscape:version="0.92.2 (5c3e80d, 2017-08-06)"
   sodipodi:docname="bootstrap.svg">
  <defs
     id="defs1266" />
  <sodipodi:namedview
     id="base"
     pagecolor="#ffffff"
     bordercolor="#666666"
     borderopacity="1.0"
     inkscape:pageopacity="0.0"
     inkscape:pageshadow="2"
     inkscape:zoom="0.0875"
     inkscape:cx="1516.1523"
     inkscape:cy="341.85863"
     inkscape:document-units="mm"
     inkscape:current-layer="layer1"
     showgrid="false"
     inkscape:pagecheckerboard="true"
     fit-margin-top="0"
     fit-margin-left="0"
     fit-margin-right="0"
     fit-margin-bottom="0"
     inkscape:window-width="1920"
     inkscape:window-height="1009"
     inkscape:window-x="-4"
     inkscape:window-y="-4"
     inkscape:window-maximized="1" />
  <metadata
     id="metadata1269">
    <rdf:RDF>
      <cc:Work
         rdf:about="">
        <dc:format>image/svg+xml</dc:format>
        <dc:type
           rdf:resource="http://purl.org/dc/dcmitype/StillImage" />
        <dc:title></dc:title>
      </cc:Work>
    </rdf:RDF>
  </metadata>
  <g
     inkscape:label="Layer 1"
     inkscape:groupmode="layer"
     id="layer1"
     transform="translate(457.77382,178.65625)">
    <g
       id="g1010"
       transform="matrix(2.1484375,0,0,2.1484375,-457.77382,-178.65625)"
       inkscape:transform-center-x="-1111.04"
       inkscape:transform-center-y="1523.2">
      <path
         id="path996"
         d="M 0,222.991 C 0,241.223 14.779,256 33.009,256 H 222.99 C 241.223,256 256,241.221 256,222.991 V 33.01 C 256,14.777 241.221,0 222.991,0 H 33.01 C 14.777,0 0,14.779 0,33.009 V 222.99 Z"
         inkscape:connector-curvature="0"
         style="fill:#563d7c" />
      <path
         id="path998"
         d="M 106.158,113.238 V 76.985 h 31.911 c 3.04,0 5.97,0.253 8.792,0.76 2.822,0.506 5.319,1.41 7.49,2.713 2.17,1.303 3.907,3.112 5.21,5.427 1.302,2.316 1.954,5.283 1.954,8.9 0,6.513 -1.954,11.217 -5.862,14.111 -3.907,2.895 -8.9,4.342 -14.979,4.342 z M 72.075,50.5 v 155 h 75.112 c 6.947,0 13.713,-0.868 20.298,-2.605 6.585,-1.737 12.446,-4.414 17.584,-8.032 5.137,-3.618 9.226,-8.286 12.265,-14.002 3.04,-5.717 4.559,-12.483 4.559,-20.298 0,-9.697 -2.352,-17.982 -7.055,-24.856 -4.704,-6.875 -11.832,-11.687 -21.384,-14.437 6.947,-3.328 12.194,-7.598 15.74,-12.808 3.545,-5.21 5.318,-11.722 5.318,-19.538 0,-7.236 -1.194,-13.314 -3.582,-18.235 -2.388,-4.92 -5.753,-8.864 -10.095,-11.831 -4.341,-2.967 -9.551,-5.102 -15.63,-6.404 C 159.127,51.151 152.397,50.5 145.016,50.5 Z m 34.083,128.515 v -42.549 h 37.121 c 7.381,0 13.315,1.7 17.802,5.102 4.486,3.401 6.73,9.081 6.73,17.041 0,4.053 -0.688,7.381 -2.063,9.986 -1.375,2.605 -3.22,4.668 -5.536,6.187 -2.315,1.52 -4.993,2.605 -8.032,3.257 -3.04,0.65 -6.223,0.976 -9.552,0.976 z"
         inkscape:connector-curvature="0"
         style="fill:#ffffff" />
    </g>
  </g>
</svg>
