<svg xmlns="http://www.w3.org/2000/svg" width="326.491" height="397" viewBox="0 0 326.491 397">
  <g id="Warstwa_2" transform="translate(-0.001)">
    <g id="Group_10" data-name="Group 10">
      <path id="Path_73" data-name="Path 73" d="M143.1,53.395c-3.192,3.627,5.125,10.131,10.477,10.289s14.217-4.908,10.418-7.44S150.062,45.48,143.1,53.395Z" fill="#f2f2f2"/>
      <path id="Path_74" data-name="Path 74" d="M197.7,10.02s1.752,21.529,7.451,24.061,13.086-2.533,10.976-8.232S211.481,0,211.481,0,196.256-.311,197.7,10.02Z" fill="#f2f2f2"/>
      <path id="Path_75" data-name="Path 75" d="M247.573,17.376c-7.139-2.747-22.928,12.005-24.273,20.671s13.063,17.868-11.819,30.227-17.1,22.8-8.232,32.927,48.123,32.927,59.521,24.695,47.777-34.825,28-67.752-41.3-21.529-41.3-28.494S255.172,20.3,247.573,17.376Z" fill="#f2f2f2"/>
      <path id="Path_76" data-name="Path 76" d="M305.194,37.985c-3.437,1.7-19.629,9.646-11.4,12.053s11.4-2.523,17.73-3.541S314.3,33.476,305.194,37.985Z" fill="#f2f2f2"/>
      <path id="Path_77" data-name="Path 77" d="M223.3,151.223c4.038,4.361,27.356,0,22.332-5.382S218.024,145.525,223.3,151.223Z" fill="#f2f2f2"/>
      <path id="Path_78" data-name="Path 78" d="M221.929,162.621c2.849,1.266,24.117,6.526,21.081.634s-18.231-5.7-18.231.634" fill="#f2f2f2"/>
      <path id="Path_79" data-name="Path 79" d="M84.841,303.824s8.235,5.065,14.565-5.065S128.7,253.8,131.782,251.9s-14.892-13.2-19.2-6.6S80.409,299.391,84.841,303.824Z" fill="#f2f2f2"/>
      <path id="Path_80" data-name="Path 80" d="M207.682,288.643s-36.836,31.5-54.034,25.312c-10.552-3.8,2.065-19.474,7.494-23.93s-17.595,10.633-27.319,8.1,10.738-30.654,19.825-32.951S216.727,281.359,207.682,288.643Z" fill="#f2f2f2"/>
      <path id="Path_81" data-name="Path 81" d="M184.254,370.942s2.634,12.664,13.347,6.332,46.544-34.826,45.409-39.891-3.668-18.362-24.564,1.266S184.254,370.942,184.254,370.942Z" fill="#f2f2f2"/>
      <path id="Path_82" data-name="Path 82" d="M151.8,251.268c1.951,23.89,36.726,8.9,31.149-.719-9.979-17.206-28.258,24.17-29.83,31.366-.391,1.791,2.355,2.553,2.748.758,1.316-6.025,4.353-11.914,7.165-17.345,2.476-4.783,7.589-15.852,14.116-15.845a3.6,3.6,0,0,1,2.892,5.523c-1.762,2.727-5.472,4.383-8.4,5.42-8.155,2.889-16.221.319-16.995-9.159-.148-1.816-3-1.83-2.849,0Z" fill="#35357e"/>
      <path id="Path_83" data-name="Path 83" d="M159.814,242.93c-10.867,4.456-6.974-13.159-4.388-18.275,3.093-6.117,9.775-12.639,16.943-9.284,2.484,1.162-5.061,3.066-5.8,3.156-3.609.441-7.1-1.137-9.812-3.439-4.671-3.965-1.13-9.733,2.263-13.044,4.384-4.277,10.2-5.973,16.162-6.352,16.608-1.058,31.788,11.459,32.344,28.351.06,1.832,2.909,1.839,2.849,0-.719-21.8-23.525-36.41-43.981-29.691-6.435,2.114-13.485,7.62-14.65,14.655-1.175,7.109,6.744,12,12.9,12.435,2.364.166,15.573-2.715,10.646-7.394-6.823-6.48-15.71-.171-20.066,5.793a28.907,28.907,0,0,0-5.409,19.326c.529,6.268,5.017,8.866,10.759,6.511,1.674-.689.942-3.446-.758-2.748Z" fill="#35357e"/>
      <path id="Path_84" data-name="Path 84" d="M207.523,222.142a11.142,11.142,0,0,0,7.7,10.4c2.753.967,8.623,1.116,9.427-2.684.631-2.983-2.387-5.569-4.622-6.926a11.815,11.815,0,0,0-11.164-.756c-1.662.783-.215,3.238,1.438,2.461a8.676,8.676,0,0,1,7.341.253c1.7.783,3.8,2.2,4.239,4.149.4,1.749-4.824,1.045-5.376.912a8.145,8.145,0,0,1-6.132-7.81c-.046-1.835-2.895-1.84-2.849,0Z" fill="#35357e"/>
      <path id="Path_85" data-name="Path 85" d="M207.941,222.4c-24.26,30.866-18.209,73.883,6.031,102.848,12.826,15.327,31.049,26.167,50.842,29.241,18.6,2.889,40.981-1.674,52.166-18.174,9.718-14.338,16.7-48.058-3.468-57.151-1.66-.748-3.111,1.706-1.438,2.461,17.179,7.745,11.519,34.492,5.444,47.816-9.545,20.939-35.316,25.564-55.856,21.622-41.013-7.87-70.283-50.659-66.136-91.482a68.513,68.513,0,0,1,14.429-35.166c1.122-1.428-.88-3.459-2.014-2.015Z" fill="#35357e"/>
      <path id="Path_86" data-name="Path 86" d="M228.491,331.015a43.059,43.059,0,0,0,9.205,5.209c1.7.7,2.431-2.057.757-2.748a40.353,40.353,0,0,1-8.525-4.923c-1.48-1.091-2.9,1.383-1.437,2.462Z" fill="#35357e"/>
      <path id="Path_87" data-name="Path 87" d="M262.392,346.988c11.22,1.779,21.737-.17,32.123-4.576,1.687-.715.233-3.169-1.438-2.461-9.587,4.067-19.568,5.931-29.929,4.289-1.8-.284-2.568,2.461-.756,2.748Z" fill="#35357e"/>
      <path id="Path_88" data-name="Path 88" d="M304.3,338.39l1.9-1.9a1.424,1.424,0,0,0-2.015-2.014l-1.9,1.9a1.424,1.424,0,0,0,2.015,2.015Z" fill="#35357e"/>
      <path id="Path_89" data-name="Path 89" d="M184.253,188.74a15.866,15.866,0,0,1,6.879,1.072c1.655.769,3.1-1.686,1.438-2.461a19.014,19.014,0,0,0-8.317-1.461,1.425,1.425,0,0,0,0,2.849Z" fill="#35357e"/>
      <path id="Path_90" data-name="Path 90" d="M205.782,196.972a1.229,1.229,0,0,1,.68.322.986.986,0,0,1,.322.412c.208.353-.044-.191.077.194s.014-.219.029.18a1.425,1.425,0,1,0,2.849,0,4.167,4.167,0,0,0-3.957-3.958,1.425,1.425,0,0,0,0,2.85Z" fill="#35357e"/>
      <path id="Path_91" data-name="Path 91" d="M146.521,273.056c-3.711,3.776-11.854,12.009-6.234,17.256,4.942,4.614,15.055-2.655,20.284-3.477l-1.8-1.373c.2,7.7-11.332,20.512,3,21.238,8.322.422,16.626-3.151,23.768-7.042,7.235-3.941,14.118-9.285,18.947-16.01,1.074-1.5-1.4-2.916-2.46-1.439-8.164,11.369-23.671,20.451-37.646,21.578-1.871.151-6.423.634-7.278-1.671-.6-1.621.743-4.122,1.337-5.577,1.465-3.58,3.288-7.112,3.185-11.078a1.45,1.45,0,0,0-1.8-1.373c-4.607.725-8.783,3.2-13.3,4.34-4.637,1.167-6.129-1.949-3.961-5.94a34.766,34.766,0,0,1,5.977-7.417c1.288-1.311-.726-3.327-2.015-2.014Z" fill="#35357e"/>
      <path id="Path_92" data-name="Path 92" d="M109.911,339.657c7.129-8,13.572-16.572,20.69-24.58a126.778,126.778,0,0,1,25.271-21.542c17.469-11.489,37.634-17.512,57.886-21.9,1.8-.388,1.034-3.135-.757-2.748-20.611,4.462-40.689,10.736-58.568,22.183a127.744,127.744,0,0,0-24.764,20.792c-7.643,8.257-14.289,17.378-21.774,25.776-1.219,1.368.79,3.39,2.015,2.015Z" fill="#35357e"/>
      <path id="Path_93" data-name="Path 93" d="M189.233,307.587c1.911.921,5.517,2.273,5.139,4.986-.2,1.418-1.327,2.79-2.106,3.944a27.478,27.478,0,0,0-4.323,8.457,1.439,1.439,0,0,0,1.752,1.752c4.122-1.122,8.291-3.017,12.623-3,1.26.006-2.9,11.591-3.028,13.022a1.428,1.428,0,0,0,1.8,1.373c5.4-2.068,10.928,3.837,14.426,7.205,4.332,4.17,8.269,8.665,12.795,12.635,14.6,12.811,28.676,26.212,43.578,38.681,1.4,1.17,3.425-.834,2.015-2.015-15.789-13.214-30.919-27.254-46.237-41.009-5.036-4.522-9.23-9.871-14.464-14.2-3.513-2.9-8.2-5.834-12.869-4.047l1.8,1.373c.289-3.326,6.492-12.419,2.461-15.161-3.992-2.715-11.621,1.289-15.661,2.39l1.752,1.752c1.216-4.673,5.118-7.847,6.429-12.4,1.2-4.16-3.424-6.745-6.45-8.2-1.647-.8-3.093,1.661-1.438,2.46Z" fill="#35357e"/>
      <path id="Path_94" data-name="Path 94" d="M12.4,302.451c-17.7-2.558-5.955-26.987-1.208-36.144a101.807,101.807,0,0,1,11.1-17.4c6.765-8.323,16.5-14.96,25.255-20.964,18.748-12.849,40.6-24.152,62.886-29.288,3.588-.827,7.525-1.476,11.152-.548,2.07.53,2.973,2.118,3.045,4.149.163,4.513-3.689,5.209-6.892,3.264-6.828-4.146.944-19.4,3.647-24.962,1.523-3.137,9.329-18.738,12.74-10.594,1.589,3.8-.022,7.882-2.887,10.506-.186.171-2.952,2.065-3.188,1.476-.585-1.466,1.628-4.209,2.347-5.309,1.01-1.543-1.459-2.969-2.46-1.439-1.456,2.227-5.363,10.982,1.185,9.5,5.387-1.215,8.608-7.108,8.41-12.291-.182-4.805-3.837-9.985-8.832-6.947-5.493,3.341-8.775,11.295-11.278,16.869-2.691,5.994-6.669,14.653-4.827,21.192,1.627,5.772,10.141,8.179,13.777,3.251,3.718-5.04-.521-11.127-5.848-11.781-6.635-.814-13.534,1.4-19.763,3.455a224.531,224.531,0,0,0-53.308,26.128c-11.886,7.876-23.817,16.76-31.856,28.7C8.483,263.852-13.279,301.6,11.647,305.2c1.794.257,2.569-2.488.756-2.75Z" fill="#35357e"/>
      <path id="Path_95" data-name="Path 95" d="M43.087,223.493a70.189,70.189,0,0,1,4.922,9.158c.691,1.674,3.449.941,2.748-.758a74.727,74.727,0,0,0-5.209-9.838,1.426,1.426,0,0,0-2.461,1.438Z" fill="#35357e"/>
      <path id="Path_96" data-name="Path 96" d="M61.306,212.389c1.834,4.378,3.231,8.92,5.065,13.3.7,1.668,3.457.936,2.748-.758-1.834-4.378-3.231-8.92-5.065-13.3-.7-1.669-3.457-.936-2.748.758Z" fill="#35357e"/>
      <path id="Path_97" data-name="Path 97" d="M77.137,195.926c1.851,6,4.308,11.786,6.331,17.73.588,1.73,3.341.987,2.748-.758-2.023-5.944-4.48-11.725-6.331-17.73-.54-1.75-3.29-1-2.748.758Z" fill="#35357e"/>
      <path id="Path_98" data-name="Path 98" d="M137.36,169.672c1.472-2.882,4.472-6.786,8.163-4.917,3.715,1.881,1.761,7.176,1.147,10.071-.708,3.333-3.1,6.694-5.248,9.242-1.327,1.578-2.9,3.038-5.048,3.136-4.52.205-3.082-4.6-1.136-6.48,1.323-1.279-.693-3.292-2.015-2.015-3.533,3.417-4.169,10.637,2.22,11.254,6.51.629,10.877-6.926,13.139-12.042,1.944-4.4,3.788-12.011-1.118-15.291-5.13-3.43-10.251,1.075-12.564,5.6-.835,1.633,1.623,3.074,2.459,1.438Z" fill="#35357e"/>
      <path id="Path_99" data-name="Path 99" d="M151.069,168.06c.495-.62,2.333-3.31,3.247-2.077,1.065,1.436,1.167,3.707,1.287,5.408.264,3.743.225,8.687-1.707,12.039a1.426,1.426,0,0,0,2.46,1.439c2.678-4.644,2.575-11.548,1.722-16.656-.313-1.873-1.065-4.335-2.974-5.158-2.475-1.068-4.657,1.24-6.05,2.99-1.132,1.423.87,3.453,2.014,2.015Z" fill="#35357e"/>
      <path id="Path_100" data-name="Path 100" d="M159.523,173.471c3.6-5.684,6.759-11.618,10.55-17.184,3.937-5.777,9.681-13.445,17.346-13.771l-1.373-1.046c1.812,8.221-5.165,17.87-9.367,24.338-4.935,7.6-10.626,14.656-16.227,21.765-1.125,1.426.879,3.457,2.015,2.015,6.006-7.621,12.038-15.2,17.329-23.352,4.519-6.956,10.932-16.752,9-25.525a1.42,1.42,0,0,0-1.373-1.046c-7.254.308-12.773,5.875-16.958,11.3-5.112,6.629-8.937,14.017-13.4,21.065-.988,1.56,1.48,2.987,2.459,1.44Z" fill="#35357e"/>
      <path id="Path_101" data-name="Path 101" d="M151.327,194.123c-4.171-.215-6.54-4.148-4.439-7.874,2.905-5.156,9.644.974,9.96,4.867.674,8.319-5.858,17.452-10.1,24.126-10.124,15.929-22.237,31.389-36.384,43.923-7.621,6.752-16.549,12.745-26.7,14.674-7.659,1.455-26.289-2.507-16.924-13.178,4.089-4.66,10.922-6.02,16.714-7.01,8.15-1.393,16.613-.775,24.816-.323a94.523,94.523,0,0,1,26.211,5.249c9.418,3.32,19.977,9.206,22.438,19.666.42,1.788,3.168,1.03,2.748-.758-4.018-17.081-25.769-23.279-40.76-25.846A123.263,123.263,0,0,0,84.876,250.6c-7.867.888-19.8,3.6-22.89,12.272-2.539,7.123,3.39,11.575,9.607,13.3,8.337,2.311,17,.058,24.546-3.642,17.874-8.767,31.476-26.005,43.121-41.618a204.623,204.623,0,0,0,14.028-20.974c3.374-5.927,8.84-15.614,5.589-22.617-2.525-5.436-10.6-7.811-14.448-2.506-3.951,5.454,1.174,11.867,6.9,12.161,1.837.094,1.827-2.755,0-2.849Z" fill="#35357e"/>
      <path id="Path_102" data-name="Path 102" d="M213.793,172.226a39.168,39.168,0,0,0,8.768.684,1.425,1.425,0,1,0,0-2.849,34.107,34.107,0,0,1-7.933-.582c-1.787-.417-2.624,2.33-.836,2.748Z" fill="#35357e"/>
      <path id="Path_103" data-name="Path 103" d="M226.571,170.6c1.007,6.205-.2,16.469-8.05,17.262-8.13.82-11.6-13.216-10.1-19.161.452-1.782-2.3-2.538-2.748-.758-2.1,8.305,2.7,22.863,12.846,22.768,10.1-.094,12.024-13.3,10.8-20.869-.292-1.81-3.037-1.039-2.746.758Z" fill="#35357e"/>
      <path id="Path_104" data-name="Path 104" d="M207.768,167.089c-3.662-1.731-5.633-6.782-1.266-8.937,1.648-.813.2-3.27-1.438-2.461-6.229,3.073-4.329,11.213,1.266,13.858,1.652.781,3.1-1.675,1.438-2.461Z" fill="#35357e"/>
      <path id="Path_105" data-name="Path 105" d="M205.528,156.182c-10.215-3.658-5.3-14.018-3.437-21.676.435-1.785-2.314-2.543-2.748-.758-2.341,9.62-6.777,20.812,5.428,25.181,1.733.621,2.473-2.133.757-2.747Z" fill="#35357e"/>
      <path id="Path_106" data-name="Path 106" d="M202.723,133.873c3.745-19.264-10.251-35.159-14.614-52.994-4.958-20.271,8.489-36.234,27.734-40.465,18.66-4.1,40.212,3.759,46.583,22.917,3.425,10.3,2.043,22.583-1.788,32.559a44.146,44.146,0,0,1-11.126,16.335c-4.337,4.045-10.525,4.888-14.979,8.865-1.372,1.226.65,3.235,2.015,2.015,4.429-3.956,10.448-4.979,14.979-8.865,4.583-3.93,7.978-9.239,10.58-14.622A53.952,53.952,0,0,0,266.6,68.984c-3.01-19.293-18.748-30.869-37.541-32.313-16.039-1.232-33.646,5.651-41.392,20.361-10.136,19.247,3.971,38.663,10.34,56.43,2.276,6.35,3.264,12.985,1.967,19.654-.348,1.8,2.4,2.56,2.748.757Z" fill="#35357e"/>
      <path id="Path_107" data-name="Path 107" d="M194.011,126.9c12.487,12.069,36.225,17.717,47.827,1.611,1.077-1.494-1.4-2.914-2.46-1.438-10.471,14.535-32.339,8.457-43.353-2.188-1.32-1.276-3.338.737-2.014,2.015Z" fill="#35357e"/>
      <path id="Path_108" data-name="Path 108" d="M192.4,137.89c9.684,5.142,30.589,14.967,38.675,2.655,1.012-1.542-1.456-2.967-2.46-1.439-6.825,10.392-26.766.577-34.777-3.677-1.621-.861-3.062,1.6-1.438,2.461Z" fill="#35357e"/>
      <path id="Path_109" data-name="Path 109" d="M213.487,130.073c1.683-11.148,8.3-20.791,9.8-31.976.826-6.169,1.746-14.237-5.64-16.336-5.2-1.477-8.939,2.57-6.929,7.521,2.726,6.713,12.292,7.564,18.382,6.51,5.648-.977,16.645-4.828,15.279-12.632-1.329-7.586-10.731-2.187-13.229,1.49-4.143,6.1-5.319,14.26-6.228,21.4-.388,3.055-2.588,17.529,2.013,18.681,1.783.446,2.539-2.3.757-2.748-1.02-.255-.363-11.02-.28-12.255a78.342,78.342,0,0,1,2.641-15.287c1.345-4.941,3.494-10.509,8.854-12.211,3.972-1.26,2.4,3.118,1.662,4.484a9.6,9.6,0,0,1-4.1,3.755,24.177,24.177,0,0,1-9.057,2.686c-4.87.619-12.121-.131-14.247-5.364-1.587-3.907,3.14-3.717,5.442-2.711,2.611,1.141,2.421,5.367,2.371,7.634-.289,13.045-8.327,23.929-10.239,36.595-.271,1.8,2.474,2.571,2.748.759Z" fill="#35357e"/>
      <path id="Path_110" data-name="Path 110" d="M196.881,68.994c2.74-6.11,5.914-12.611,11.52-16.585,1.485-1.053.065-3.526-1.438-2.461-6.062,4.3-9.569,10.978-12.542,17.607-.746,1.662,1.71,3.112,2.46,1.439Z" fill="#35357e"/>
      <path id="Path_111" data-name="Path 111" d="M219.165,49.243c1.783-.863,3.877-1.693,5.868-1.124a1.426,1.426,0,0,0,.757-2.748c-2.766-.792-5.574.205-8.062,1.409-1.655.8-.208,3.259,1.437,2.462Z" fill="#35357e"/>
      <path id="Path_112" data-name="Path 112" d="M209.667,60.007c1.212-.565,2.576-.7,3.8-1.266a1.429,1.429,0,0,0,.511-1.949,1.454,1.454,0,0,0-1.949-.512c-1.212.565-2.576.7-3.8,1.266a1.429,1.429,0,0,0-.511,1.95,1.455,1.455,0,0,0,1.949.511Z" fill="#35357e"/>
      <path id="Path_113" data-name="Path 113" d="M158.925,65.267c6-.04,12.058-.591,17.985.582,1.794.355,2.559-2.391.757-2.748-6.195-1.226-12.472-.727-18.741-.685a1.426,1.426,0,0,0,0,2.85Z" fill="#35357e"/>
      <path id="Path_114" data-name="Path 114" d="M177.677,56.841a10.732,10.732,0,0,0,4.993.827,1.425,1.425,0,1,0,0-2.849,8.828,8.828,0,0,1-3.634-.439c-1.653-.778-3.021,1.678-1.359,2.461Z" fill="#35357e"/>
      <path id="Path_115" data-name="Path 115" d="M201.876,10.4c1.36,6.438,3.6,12.7,4.381,19.25.214,1.8,3.066,1.823,2.849,0-.809-6.821-3.068-13.309-4.484-20.007-.379-1.8-3.126-1.035-2.747.757Z" fill="#35357e"/>
      <path id="Path_116" data-name="Path 116" d="M239.183,22.051a13.332,13.332,0,0,1-1.7,6.879c-.975,1.564,1.49,2.993,2.46,1.439a16.2,16.2,0,0,0,2.094-8.317,1.425,1.425,0,0,0-2.849,0Z" fill="#35357e"/>
      <path id="Path_117" data-name="Path 117" d="M265.389,56.841a71.229,71.229,0,0,1,11.69-4.289,1.426,1.426,0,0,0-.757-2.748,75.381,75.381,0,0,0-12.37,4.575c-1.651.809-.206,3.266,1.437,2.462Z" fill="#35357e"/>
      <path id="Path_118" data-name="Path 118" d="M136.764,326.144a1.785,1.785,0,0,0,2.058-2.058,1.425,1.425,0,0,0-2.849,0c0,.138-.067.581.028.067a1.173,1.173,0,0,1,1.072-.863c-.1.01-.207,0-.309,0a1.425,1.425,0,0,0,0,2.849Z" fill="#35357e"/>
      <path id="Path_119" data-name="Path 119" d="M144.678,313.641h0a1.425,1.425,0,0,0-2.849,0h0a1.425,1.425,0,1,0,2.849,0Z" fill="#35357e"/>
    </g>
  </g>
</svg>
