<svg id="Group_9" data-name="Group 9" xmlns="http://www.w3.org/2000/svg" width="782.1" height="528" viewBox="0 0 782.1 528">
  <path id="Path_1" data-name="Path 1" d="M524.269,345.932s-18.731,6.613-17.506,18.823S531.4,386.359,537.5,394.38s20.738-14.363,19.017-22.5S524.269,345.932,524.269,345.932Z" transform="translate(-65.219 -44.526)" fill="#f2f2f2"/>
  <path id="Path_2" data-name="Path 2" d="M625.651,215.375c-3.182.4-42.065.98-62.24,43.714s37.823,9.157,50.031,0c-10.175,15.262-23.4,30.524,0,32.559s80.383-28.276,98.7-39.066S730.452,202.186,625.651,215.375Z" transform="translate(-71.974 -27.38)" fill="#f2f2f2"/>
  <path id="Path_3" data-name="Path 3" d="M573.663,402s-12.211,19.54-5.088,26.153,32.287,5.6,59.386,11.7,76.956,27.472,89.166,17.3,26.455-42.734,30.524-51.383S602.153,381.444,573.663,402Z" transform="translate(-72.895 -50.439)" fill="#f2f2f2"/>
  <path id="Path_4" data-name="Path 4" d="M97.294,375.439c-8.649-17.3-88.011-96.661-71.732-159.744s26.8-22.538,34.769-17.883,10,13.814,21.7-11.624,46.3-101.748,91.573-87.5,40.191,62.067,7.631,85.468-29.506,50.873-22.893,60.031,29,50.873,4.579,69.7-42.948,38.757-47.928,50.157S97.294,375.439,97.294,375.439Z" transform="translate(-3.007 -12.476)" fill="#f2f2f2"/>
  <path id="Path_5" data-name="Path 5" d="M213.98,215.766c-4.072,4.032-19.333,14.206-14.246,33.539s11.193,34.633,19.333,19.352,2.036-24.439,9.157-29.526,13.228-23.325,3.052-23.363S213.98,215.766,213.98,215.766Z" transform="translate(-25.576 -27.77)" fill="#f2f2f2"/>
  <path id="Path_6" data-name="Path 6" d="M149.672,436.966s24.158-89.059,60.031-129.22,81.4-60.031,115.991-42.734,51.891,36.629,25.437,67.153-54.944,27.307-75.293,15.688-54.941,30.335-49.855,35.3,47.32,18.96-38.665,61.947C164.931,456.3,155.778,448.157,149.672,436.966Z" transform="translate(-19.264 -33.304)" fill="#f2f2f2"/>
  <path id="Path_7" data-name="Path 7" d="M604.9,105.312c1.432,6.529,5.525,11.175,12.581,9.772,7.263-1.445,13.2-8.976,16.022-15.329,1.186-2.674-2.758-5.006-3.953-2.312-3.24,7.3-16.968,21.533-20.236,6.651-.632-2.883-5.046-1.661-4.414,1.218Z" transform="translate(-77.85 -12.388)" fill="#35357e"/>
  <path id="Path_8" data-name="Path 8" d="M600.216,165.406c6.847,18.585,24.7,18.878,40.027,10.071,12.364-7.106,29.357-24.117,22.7-39.859-2.889-6.83-10.5-9.046-16.744-5.757-8.5,4.479-13.6,15.955-17.248,24.242-4.563,10.374-7.153,21.634-9.037,32.766-2.35,13.893-3.12,29.09,2.917,42.166,1.236,2.679,5.183.35,3.953-2.312-8.779-19.021-2.773-44.572,3.529-63.581,2.468-7.445,17.838-42.736,28.23-26.074,7.3,11.7-10.046,27.408-18.292,33-12.437,8.437-29.454,10.854-35.62-5.882-1.012-2.747-5.438-1.56-4.415,1.216Z" transform="translate(-77.235 -16.522)" fill="#35357e"/>
  <path id="Path_9" data-name="Path 9" d="M677.854,94.757c-.546-4.4,2.587-11.093,7.836-6.29,2.619,2.4,1.5,7.146.661,10.021-1.719,5.9-7.089,13.922-13.837,14.328-2.933.177-2.952,4.757,0,4.579,11.489-.693,20.473-15.462,19.16-26.181a10.126,10.126,0,0,0-10.07-8.989c-6.1-.208-8.934,7.657-8.327,12.53.359,2.892,4.942,2.927,4.577,0Z" transform="translate(-86.277 -10.583)" fill="#35357e"/>
  <path id="Path_10" data-name="Path 10" d="M676.008,159.623c15.265-10.479,33.568-14.9,51.345-19.1,2.874-.679,1.654-5.093-1.216-4.415-18.141,4.286-36.861,8.87-52.438,19.563-2.419,1.659-.131,5.63,2.309,3.954Z" transform="translate(-86.581 -17.51)" fill="#35357e"/>
  <path id="Path_11" data-name="Path 11" d="M678.322,172.5c12.132-5.938,24.893-10.56,38.526-10.88,2.949-.069,2.955-4.647,0-4.579-14.446.34-27.979,5.212-40.837,11.5-2.651,1.3-.33,5.247,2.311,3.954Z" transform="translate(-86.86 -20.213)" fill="#35357e"/>
  <path id="Path_12" data-name="Path 12" d="M604.282,124.091c-.336,3.5-.905,11.833-6.315,10.616-3.956-.89-7.277-5.447-9.469-8.521-5.829-8.17-6.976-17.513-6.831-27.3.079-5.247,1.119-13.516,6.792-15.828.258-.105-.276,1.882-.53,2.43a6.536,6.536,0,0,1-4.189,3.258c-4.742,1.535-11.276-2.018-14.562-5.157-3.132-2.99-3.548-7.494-3.237-11.544,1.154-15.016,15.517-32.7,28.458-39.6,19.691-10.5,55.612-17.829,73.638-.345,2.12,2.056,5.36-1.178,3.237-3.237-11.364-11.024-29.83-12.175-44.735-10.719-14.52,1.419-31.057,6.161-42.348,15.793-13.429,11.453-36.257,43.579-13.128,56.656,7.433,4.2,19.642,4.562,21.857-5.719,1.935-8.982-8.551-6.4-11.773-1.4-6.526,10.125-5.465,27.443-.482,38.1,3.353,7.173,11.224,20.166,20.979,17.529,5.9-1.6,6.752-10.172,7.216-15.009.284-2.938-4.3-2.912-4.577,0Z" transform="translate(-72.227 -2.271)" fill="#35357e"/>
  <path id="Path_13" data-name="Path 13" d="M683.815,29.174c9.3,4.044,18.9,2.456,21.3-8.553,1.494-6.848-.472-18.3-8.467-20.3-11.6-2.914-15.361,15.1-16.028,22.57-1.444,16.175.383,33.9,4.174,49.687.688,2.869,5.105,1.653,4.415-1.218-2.523-10.506-3.544-21.437-4.115-32.2-.54-10.194-1.914-24.635,6.015-32.427,6.222-6.114,9.572,3.787,9.844,8.748.53,9.678-6.247,13.481-14.832,9.746-2.677-1.163-5.011,2.781-2.309,3.956Z" transform="translate(-87.541 0)" fill="#35357e"/>
  <path id="Path_14" data-name="Path 14" d="M687.727,106.793c1.053,16.923,2,33.969,6.187,50.466.726,2.86,5.142,1.647,4.415-1.218-4.086-16.106-4.992-32.727-6.022-49.248-.185-2.932-4.763-2.95-4.58,0Z" transform="translate(-88.518 -13.462)" fill="#35357e"/>
  <path id="Path_15" data-name="Path 15" d="M861.833,324.368c4.692,14.556,4.38,31.548,4.9,46.649a601.034,601.034,0,0,1-1.931,73.695c-1.659,18.714-11.975,112.937-49.736,77.9-8.571-7.953-14.314-19.07-19.832-29.219-6.2-11.41-12.567-22.716-18.373-34.335a757.2,757.2,0,0,1-38.635-92.8c-10.89-31.793-17.391-64.234-23.34-97.232-6.271-34.8-11.909-69.716-14.406-105.013-.208-2.927-4.788-2.949-4.579,0,3.414,48.257,11.962,96.365,21.478,143.754,9.079,45.216,25.988,88.626,44.675,130.642,8.2,18.431,17.82,35.979,27.313,53.736,6.938,12.98,14.427,28.723,26.864,37.418,13.121,9.171,26.065,4.814,34.366-7.924,8.464-12.99,11.848-29.471,14.562-44.477,3.658-20.235,5.241-40.854,6.036-61.378.742-19.123.624-38.306-.453-57.416-.65-11.509-.923-24.145-4.495-35.222-.9-2.8-5.326-1.6-4.417,1.218Z" transform="translate(-89.57 -20.828)" fill="#35357e"/>
  <path id="Path_16" data-name="Path 16" d="M708.838,329.272c1.207,8.469,4.136,16.443,7.123,24.419,1.026,2.738,5.452,1.554,4.415-1.218-2.987-7.974-5.916-15.95-7.123-24.419-.415-2.912-4.826-1.668-4.415,1.218Z" transform="translate(-91.233 -42.011)" fill="#35357e"/>
  <path id="Path_17" data-name="Path 17" d="M725.1,388.228c.385,11.552,5.818,21.394,10.487,31.68,1.218,2.686,5.165.356,3.953-2.311-4.318-9.513-9.505-18.679-9.861-29.369-.1-2.944-4.676-2.953-4.579,0Z" transform="translate(-93.329 -49.686)" fill="#35357e"/>
  <path id="Path_18" data-name="Path 18" d="M586.9,249.016a70.269,70.269,0,0,1,12.871-16.833c2.077-2.1-1.16-5.34-3.237-3.237-5.253,5.313-10.133,11.1-13.585,17.761-1.357,2.616,2.595,4.931,3.951,2.309Z" transform="translate(-74.996 -29.381)" fill="#35357e"/>
  <path id="Path_19" data-name="Path 19" d="M577.57,268.52h0a2.289,2.289,0,0,0-4.579,0h0a2.289,2.289,0,0,0,4.579,0Z" transform="translate(-73.751 -34.268)" fill="#35357e"/>
  <path id="Path_20" data-name="Path 20" d="M580.126,321.9c10.662-75.651,104.236-136.308,171.18-84.458,2.3,1.784,5.569-1.432,3.237-3.237-69.385-53.738-167.607,6.844-178.833,86.478-.408,2.886,4,4.13,4.415,1.216Z" transform="translate(-74.097 -27.519)" fill="#35357e"/>
  <g id="Group_6" data-name="Group 6" transform="translate(521.957 259.943)">
    <g id="Group_5" data-name="Group 5">
      <path id="Path_21" data-name="Path 21" d="M601.278,302.922c2.953,0,2.953-4.579,0-4.579s-2.952,4.579,0,4.579Z" transform="translate(-599.063 -298.344)" fill="#35357e"/>
    </g>
  </g>
  <g id="Group_8" data-name="Group 8" transform="translate(515.852 272.153)">
    <g id="Group_7" data-name="Group 7">
      <path id="Path_22" data-name="Path 22" d="M594.271,316.936c2.953,0,2.953-4.579,0-4.579s-2.952,4.579,0,4.579Z" transform="translate(-592.056 -312.357)" fill="#35357e"/>
    </g>
  </g>
  <path id="Path_23" data-name="Path 23" d="M622.285,297.187a36.566,36.566,0,0,1,10.645-4.856c2.851-.757,1.641-5.174-1.216-4.415a40.633,40.633,0,0,0-11.738,5.317c-2.463,1.607-.171,5.572,2.309,3.954Z" transform="translate(-79.662 -37.047)" fill="#35357e"/>
  <path id="Path_24" data-name="Path 24" d="M647.26,286.018l7.123-7.123c2.089-2.089-1.148-5.327-3.237-3.237l-7.123,7.123c-2.089,2.089,1.148,5.327,3.237,3.237Z" transform="translate(-82.807 -35.394)" fill="#35357e"/>
  <path id="Path_25" data-name="Path 25" d="M608.127,231.718c-16.594,5.519-29.557,25.805-30.17,42.906a2.31,2.31,0,0,0,2.9,2.207c11.245-2.746,20.547-9.962,31.071-14.475l-3.362-2.585c-1.952,5.351-3.136,10.929-5.088,16.28a2.278,2.278,0,0,0,1.6,2.816c12.55,1.781,25.482-7.228,34.981-14.291,10-7.437,22.913-18.237,25.831-31.058.655-2.875-3.759-4.1-4.415-1.218C659,243.126,648.4,251.981,640.219,258.685c-8.4,6.885-22.264,17.425-33.929,15.769q.8,1.408,1.6,2.816c1.952-5.351,3.136-10.929,5.088-16.28.775-2.123-1.737-3.283-3.362-2.585-10.148,4.353-19.143,11.369-29.978,14.015l2.9,2.207c.537-14.969,12.236-33.644,26.806-38.491,2.79-.929,1.6-5.351-1.213-4.417Z" transform="translate(-74.39 -29.689)" fill="#35357e"/>
  <path id="Path_26" data-name="Path 26" d="M691.055,232.913c.617,18.069-5.919,35.15-8.139,52.909-.2,1.639,1.607,2.389,2.9,2.207,5.076-.714,10.183-.3,15.262-1.018l-2.584-3.362c-4.4,6.209-9.89,11.39-13.228,18.315a2.314,2.314,0,0,0,2.584,3.362c3.381-.7,6.792-.321,10.175-1.018q-1.406-1.408-2.816-2.816c-9.8,32.417-8.516,66.464-13.228,99.712-.411,2.888,4,4.131,4.415,1.218,4.708-33.227,3.44-67.329,13.228-99.712a2.315,2.315,0,0,0-2.816-2.816c-3.381.7-6.792.32-10.175,1.018l2.584,3.362c3.321-6.886,8.852-12.133,13.228-18.315,1.313-1.854-.846-3.608-2.584-3.362-5.076.714-10.183.3-15.262,1.018l2.9,2.207c2.225-17.794,8.757-34.784,8.139-52.909-.1-2.944-4.678-2.953-4.577,0Z" transform="translate(-87.775 -29.694)" fill="#35357e"/>
  <path id="Path_27" data-name="Path 27" d="M581.377,276.845c-16.767,13.513-28.226,32.572-39.192,50.785-11.343,18.84-24.854,37.266-33.618,57.492-3.649,8.423-9.507,34.634,6.541,35.744,3.249.224,7.066-1.825,6.9-5.574-.293-6.619-7.014-10.722-12.133-13.657-2.566-1.47-4.87,2.486-2.311,3.954,3.391,1.944,6.766,3.986,9.052,7.248,1.392,1.984.824,3.9-1.731,3.353-7.127-1.535-6.366-13.884-5.471-18.885,2.538-14.183,12.106-27.982,19.922-39.831,17.266-26.171,30.341-57.3,55.279-77.393,2.3-1.853-.963-5.072-3.239-3.237Z" transform="translate(-64.929 -35.563)" fill="#35357e"/>
  <path id="Path_28" data-name="Path 28" d="M485.828,418.348c-51.348-25.83-109.306-32.769-165.986-35.924-2.952-.163-2.936,4.415,0,4.579,55.84,3.107,113.079,9.846,163.676,35.3,2.63,1.323,4.95-2.625,2.311-3.953Z" transform="translate(-40.883 -49.223)" fill="#35357e"/>
  <path id="Path_29" data-name="Path 29" d="M312.938,383.578c-10.639,14.989-25.41,26.535-34.891,42.438-6.769,11.352-7.9,25.741-5.371,38.532,2.167,10.97,12.28,12.765,19.4,4.493,7.04-8.177,8.693-22.767,6.728-33.026l-2.207,2.9c10.2.162,27.376-28.868,33.4-11.856.98,2.762,5.4,1.574,4.415-1.218-2.752-7.764-7.932-11.5-15.726-7.514-4.073,2.085-7.578,5.571-10.952,8.59-2.834,2.535-7.007,7.485-11.141,7.419a2.32,2.32,0,0,0-2.207,2.9c1.735,9.05-.177,20.1-5.069,27.885-3.545,5.642-9.762,6.439-11.883-.388-1.514-4.873-1.386-10.348-1.221-15.392.893-27.214,26.205-43.065,40.671-63.451,1.714-2.414-2.259-4.7-3.953-2.311Z" transform="translate(-34.937 -49.242)" fill="#35357e"/>
  <path id="Path_30" data-name="Path 30" d="M341.618,419.776a22.437,22.437,0,0,0-2.675,6.694c-1.114,3.755-3.974,6.608-6.766,9.208-4.3,4-9.3,7.057-13.3,11.408-5.264,5.723-9.166,17.181-3.983,24.117,4.209,5.636,13.121,3.388,18.756,1.918,9.078-2.366,20.091-8.828,29.688-7.25,2.888.475,4.124-3.938,1.216-4.415-14.878-2.447-28.458,10.955-43.122,8.559-5.111-.835-4.4-7.182-3.745-10.9,1.132-6.4,6.077-10.856,10.882-14.7,3.683-2.949,7.387-5.69,10.5-9.272,3.5-4.028,3.625-8.9,6.509-13.063,1.686-2.433-2.285-4.719-3.953-2.309Z" transform="translate(-40.216 -53.899)" fill="#35357e"/>
  <path id="Path_31" data-name="Path 31" d="M401.888,375.383c-.23,12.307-3.059,24.139-6.022,36.02-.716,2.866,3.7,4.081,4.415,1.218,3.065-12.28,5.948-24.528,6.187-37.238.053-2.955-4.525-2.949-4.58,0Z" transform="translate(-50.942 -48.032)" fill="#35357e"/>
  <path id="Path_32" data-name="Path 32" d="M415.334,384.725c-.139,13.258-1.9,26.423-2.034,39.682-.032,2.955,4.547,2.952,4.579,0,.139-13.258,1.9-26.423,2.034-39.682.032-2.953-4.547-2.95-4.579,0Z" transform="translate(-53.196 -49.234)" fill="#35357e"/>
  <path id="Path_33" data-name="Path 33" d="M441.9,394.071c.778,6.781-.813,13.1-3.756,19.194-1.279,2.646,2.669,4.969,3.953,2.312,3.275-6.779,5.25-13.937,4.382-21.506-.331-2.9-4.914-2.93-4.579,0Z" transform="translate(-56.362 -50.441)" fill="#35357e"/>
  <path id="Path_34" data-name="Path 34" d="M311.209,436.109c.733,8.924-1.477,17.272-10.058,21.425-2.657,1.287-.336,5.235,2.311,3.954,9.933-4.806,13.185-14.931,12.326-25.379-.24-2.921-4.82-2.944-4.579,0Z" transform="translate(-38.61 -55.85)" fill="#35357e"/>
  <path id="Path_35" data-name="Path 35" d="M325.232,426.769c.835,7.549-.731,15.935-9.51,17.124-2.915.4-1.67,4.806,1.216,4.415,10.725-1.453,13.919-12.065,12.874-21.539-.322-2.9-4.9-2.932-4.58,0Z" transform="translate(-40.423 -54.649)" fill="#35357e"/>
  <path id="Path_36" data-name="Path 36" d="M621.959,311.154c-12.9,24.5-20.471,51.236-28.887,77.487-5.987,18.675-17.938,40.689-15.19,60.876,1.149,8.451,5.291,14.041,12.7,18.142,3.906,2.161,9.38,3.023,11.764-1.607,5.629-10.934-9.073-26.747-17.954-30.57-2.682-1.154-5.015,2.79-2.311,3.954,5.623,2.421,9.7,6.576,12.881,11.741,1.177,1.911,6.464,12.321,2.277,13.705-2.831.936-7.71-3.115-9.592-4.644-3.11-2.526-4.376-6.477-5.122-10.244-1.6-8.068.852-16.994,3.02-24.72,4.806-17.124,11.465-33.838,16.825-50.809,6.573-20.807,13.347-41.634,23.54-61,1.377-2.61-2.575-4.925-3.951-2.311Z" transform="translate(-74.328 -39.902)" fill="#35357e"/>
  <path id="Path_37" data-name="Path 37" d="M545.393,453.574c-37.881-7.178-75.592-6.883-113.9-8.8-17.174-.859-33.305-.447-49.092,7.042-16.169,7.672-30.14,19.488-44.761,29.63-14.574,10.108-30.192,18.293-43,30.825-3.384,3.31-9.15,9.133-7.808,14.5,1.711,6.837,11.35,6.656,16.81,6.593,2.952-.034,2.955-4.612,0-4.579-6.032.069-15.584.046-10.462-7.843,4.037-6.219,10.778-11.129,16.593-15.551,14.4-10.948,30.233-19.88,44.887-30.5,12.24-8.869,24.88-18.035,39.337-22.9,15.436-5.2,32.653-2.7,48.578-2.147,34.233,1.2,67.785,1.74,101.6,8.145,2.885.548,4.115-3.864,1.216-4.414Z" transform="translate(-36.893 -57.207)" fill="#35357e"/>
  <path id="Path_38" data-name="Path 38" d="M350.607,499.885c-10.593,9.192-23.563,15.583-34.735,24.07-6.624,5.032-18.2,14.026-14.816,23.888,2.7,7.854,15.012,4.956,20.683,3.506,9.533-2.439,20.75-6.787,28.035-13.634,2.155-2.025-1.088-5.256-3.237-3.237-5.34,5.018-44.965,22.808-40.942,7.315,2.422-9.327,16.211-16.726,23.5-21.633,8.266-5.569,17.2-10.485,24.755-17.039,2.233-1.938-1.02-5.162-3.239-3.237Z" transform="translate(-38.671 -64.266)" fill="#35357e"/>
  <path id="Path_39" data-name="Path 39" d="M372.826,506.2c-5.771,8.1-45.786,49.861-25.8,58.842,7.794,3.5,17.964-5.934,23.252-10.412,7.547-6.389,15.7-14.093,20.749-22.718,1.494-2.553-2.463-4.856-3.953-2.311-3.695,6.314-9.366,11.746-14.566,16.807-5.571,5.423-13.843,14.073-22.145,14.69-10.85.806,3.848-22.432,5.464-24.795,6.557-9.586,14.223-18.34,20.955-27.792,1.719-2.411-2.254-4.695-3.951-2.311Z" transform="translate(-43.952 -65.024)" fill="#35357e"/>
  <path id="Path_40" data-name="Path 40" d="M394.588,534.99c6.68,4.131,13.077,4.687,20.714,3.283,11.579-2.128,21.027-3.643,32.853-1.542,21.452,3.813,42.572,12.346,63.437,18.54,23.517,6.984,46.952,14.244,70.474,21.211q16.977,5.03,34.038,9.765,8.557,2.372,17.148,4.62c6.019,1.586,13.183,2.385,18.756,5.171,2.633,1.316,4.953-2.634,2.311-3.954-8.486-4.24-19.27-5.456-28.436-7.915-12.361-3.316-24.662-6.844-36.945-10.436-23.547-6.889-46.981-14.149-70.484-21.191-21.282-6.378-42.511-13.976-64.107-19.174-8.68-2.089-17.924-3.349-26.832-2.361-10.993,1.218-20.108,6.531-30.619.031-2.515-1.558-4.812,2.4-2.308,3.953Z" transform="translate(-50.649 -68.304)" fill="#35357e"/>
  <path id="Path_41" data-name="Path 41" d="M389.092,545.832c2.385,4.476,6.46,7.372,11.477,5.156,5.18-2.289,6.927-9.408,7.033-14.452.063-2.955-4.518-2.949-4.579,0-.073,3.492-.916,7.063-3.454,9.6-2.709,2.709-5.189-.111-6.525-2.618-1.389-2.607-5.342-.293-3.953,2.311Z" transform="translate(-50.043 -68.774)" fill="#35357e"/>
  <path id="Path_42" data-name="Path 42" d="M474.11,436.709c2.1,10.58,4.1,21.175,7.123,31.542.823,2.83,5.243,1.624,4.415-1.218-3.017-10.366-5.018-20.963-7.123-31.542-.575-2.894-4.989-1.665-4.415,1.218Z" transform="translate(-61.017 -55.841)" fill="#35357e"/>
  <path id="Path_43" data-name="Path 43" d="M488.034,439.614a121.588,121.588,0,0,0,8.223,32.151c1.067,2.715,5.5,1.534,4.415-1.218-3.938-10.015-6.947-20.2-8.058-30.933-.3-2.906-4.884-2.935-4.58,0Z" transform="translate(-62.814 -56.302)" fill="#35357e"/>
  <path id="Path_44" data-name="Path 44" d="M539.417,436.111c1.053,8.828,2.915,17.539,3.052,26.454.046,2.95,4.624,2.955,4.579,0-.137-8.925-2-17.619-3.052-26.454-.345-2.894-4.927-2.927-4.579,0Z" transform="translate(-69.427 -55.852)" fill="#35357e"/>
  <path id="Path_45" data-name="Path 45" d="M227.341,443.665c-26.5-36.391-44.651-77.98-70.206-114.976-1.665-2.411-5.635-.125-3.953,2.312,25.553,36.994,43.7,78.583,70.206,114.974,1.72,2.361,5.7.079,3.953-2.311Z" transform="translate(-19.664 -42.175)" fill="#35357e"/>
  <path id="Path_46" data-name="Path 46" d="M138.5,327.235c-36.992.18-76.129,8.84-112.332-1.954-2.836-.846-4.038,3.573-1.216,4.415,36.661,10.931,76.1,2.3,113.547,2.117,2.953-.014,2.955-4.592,0-4.579Z" transform="translate(-3.004 -41.854)" fill="#35357e"/>
  <path id="Path_47" data-name="Path 47" d="M23.247,328.282c10.3,7.665,14.571,23.6,19.946,34.709,8.133,16.808,19.012,32.565,28.652,48.537C91.8,444.6,113.086,477.361,128.012,513.113c1.119,2.683,5.552,1.506,4.415-1.218-15.1-36.158-36.5-69.2-56.629-102.678-9.957-16.561-21.054-32.833-29.479-50.246C40.667,347.288,36.4,332.4,25.558,324.328c-2.372-1.764-4.65,2.213-2.311,3.954Z" transform="translate(-2.865 -41.689)" fill="#35357e"/>
  <path id="Path_48" data-name="Path 48" d="M20.932,325.277C14.427,327.489,8.1,330.189,1.6,332.4c-2.779.945-1.587,5.368,1.216,4.415,6.5-2.211,12.828-4.911,19.331-7.123,2.779-.946,1.587-5.368-1.216-4.415Z" transform="translate(-0.002 -41.85)" fill="#35357e"/>
  <path id="Path_49" data-name="Path 49" d="M.229,337.982c31.316,68.76,66.317,135.769,101.747,202.477,1.384,2.608,5.337.295,3.953-2.311C70.5,471.44,35.5,404.432,4.182,335.671c-1.222-2.685-5.168-.356-3.953,2.311Z" transform="translate(0.001 -43.052)" fill="#35357e"/>
  <path id="Path_50" data-name="Path 50" d="M124.1,558.607c16.369-18.875,35.071-35.6,53.448-52.473,15.517-14.244,32.238-28.714,43.572-46.685,1.581-2.5-2.384-4.8-3.953-2.311-11.108,17.611-27.657,31.785-42.856,45.757-18.366,16.884-37.078,33.6-53.448,52.473-1.925,2.221,1.3,5.474,3.237,3.239Z" transform="translate(-15.481 -58.702)" fill="#35357e"/>
  <path id="Path_51" data-name="Path 51" d="M55.1,356.673c26.82,49.436,51.748,100.245,85.468,145.5,1.743,2.338,5.719.06,3.953-2.312-33.719-45.254-58.648-96.064-85.468-145.5-1.409-2.6-5.36-.284-3.953,2.311Z" transform="translate(-7.054 -45.465)" fill="#35357e"/>
  <path id="Path_52" data-name="Path 52" d="M58.258,358.072c28.957-.1,57.714-3.123,86.484-6.1,2.906-.3,2.936-4.882,0-4.579-28.771,2.982-57.528,6.006-86.484,6.1-2.952.011-2.952,4.589,0,4.579Z" transform="translate(-7.213 -44.712)" fill="#35357e"/>
  <path id="Path_53" data-name="Path 53" d="M152.013,353.188a500.522,500.522,0,0,1,50.875,91.573c1.148,2.711,5.09.375,3.953-2.311a500.383,500.383,0,0,0-50.875-91.573c-1.677-2.4-5.65-.114-3.953,2.311Z" transform="translate(-19.512 -45.032)" fill="#35357e"/>
  <path id="Path_54" data-name="Path 54" d="M157.96,516.475c17.254-17.324,33.555-35.678,51.891-51.891,2.216-1.96-1.035-5.185-3.237-3.237-18.337,16.213-34.639,34.566-51.891,51.891-2.085,2.094,1.152,5.331,3.237,3.237Z" transform="translate(-19.828 -59.304)" fill="#35357e"/>
  <path id="Path_55" data-name="Path 55" d="M122.486,573.058c28.859,1.667,56.865-7.643,85.318-10.743,23.336-2.541,47.05.575,70.355-2.485,2.885-.378,2.921-4.962,0-4.579-22.409,2.943-45.232.491-67.729,2.237-29.506,2.291-58.1,12.713-87.945,10.989-2.95-.168-2.935,4.411,0,4.58Z" transform="translate(-15.481 -71.465)" fill="#35357e"/>
  <path id="Path_56" data-name="Path 56" d="M147.008,546.8c41.58-.214,82.553-8.944,124.133-9.157,2.953-.015,2.953-4.594,0-4.579-41.58.214-82.553,8.944-124.133,9.157-2.952.015-2.952,4.594,0,4.579Z" transform="translate(-18.636 -68.613)" fill="#35357e"/>
  <path id="Path_57" data-name="Path 57" d="M236.316,461.662c8.9,1.993,18.026,1.181,27.061,1.1,2.952-.027,2.955-4.606,0-4.579-8.6.078-17.368.962-25.846-.936-2.874-.643-4.1,3.771-1.215,4.415Z" transform="translate(-30.205 -58.846)" fill="#35357e"/>
  <path id="Path_58" data-name="Path 58" d="M194.165,523.179c17.065-18.2,33.305-37.22,51.891-53.926,2.2-1.978-1.048-5.2-3.237-3.237-18.588,16.706-34.827,35.723-51.891,53.926-2.018,2.152,1.215,5.4,3.237,3.237Z" transform="translate(-24.492 -59.904)" fill="#35357e"/>
  <path id="Path_59" data-name="Path 59" d="M234.2,525.645c12.231-16.509,26.677-31.771,36.629-49.857,1.426-2.587-2.529-4.9-3.953-2.311-9.959,18.092-24.389,33.334-36.629,49.857-1.76,2.376,2.218,4.655,3.953,2.311Z" transform="translate(-29.579 -60.797)" fill="#35357e"/>
  <path id="Path_60" data-name="Path 60" d="M266.546,525.258c13.838-11.044,23.571-26.045,34.593-39.682,1.838-2.274-1.38-5.534-3.237-3.237-11.025,13.64-20.753,28.636-34.593,39.682-2.308,1.842.954,5.059,3.237,3.237Z" transform="translate(-33.789 -61.983)" fill="#35357e"/>
  <path id="Path_61" data-name="Path 61" d="M199.559,512.925c27.2-.13,54.97-4.109,81.808,1.952,2.875.65,4.1-3.765,1.216-4.415-27.28-6.161-55.38-2.248-83.023-2.117-2.953.017-2.953,4.6,0,4.58Z" transform="translate(-25.4 -65.258)" fill="#35357e"/>
  <path id="Path_62" data-name="Path 62" d="M218.248,493.269c26.06,2.9,52.224.107,78.345,0,2.953-.012,2.953-4.591,0-4.579-26.121.107-52.285,2.9-78.345,0-2.932-.327-2.9,4.255,0,4.579Z" transform="translate(-27.809 -62.899)" fill="#35357e"/>
  <path id="Path_63" data-name="Path 63" d="M130.2,243.86c11.761,12.025,21.329,25.979,30.167,40.236,1.552,2.5,5.513.206,3.953-2.311-9.035-14.575-18.856-28.868-30.881-41.162-2.07-2.112-5.305,1.126-3.239,3.237Z" transform="translate(-16.673 -30.883)" fill="#35357e"/>
  <path id="Path_64" data-name="Path 64" d="M168.015,304.967h1.526a2.289,2.289,0,0,0,0-4.579h-1.526a2.289,2.289,0,0,0,0,4.579Z" transform="translate(-21.331 -38.664)" fill="#35357e"/>
  <path id="Path_65" data-name="Path 65" d="M245.627,412.492c-5.584-7.439-12.269-13.977-17.4-21.761-5.36-8.133-8.061-19.635-7.814-29.358.145-5.74,4.859-11.459,10.984-8.577,4.131,1.943,4.583,8.333.974,10.871-8.229,5.786-11.059-7.022-11.268-12.088-.488-11.859,2.549-25.564,7.225-36.487,9.691-22.638,20.808-43.961,40.9-59.209,2.32-1.761.043-5.74-2.311-3.954C244.5,268.944,229.207,294.937,221.26,321.7c-3.377,11.369-11.964,41.354,4.272,47.029,7.521,2.63,14.462-3.739,13.788-11.154-.675-7.448-9.311-12.75-16.156-8.985-9.962,5.478-7.637,18.287-5.49,27.544,3.762,16.221,14.357,25.831,24,38.673,1.751,2.329,5.728.05,3.953-2.312Z" transform="translate(-27.775 -32.369)" fill="#35357e"/>
  <path id="Path_66" data-name="Path 66" d="M206.508,356.419s-.153-14.182,2.74-20.467c1.226-2.662-2.72-4.863-3.953-2.182-3.269,7.1-3.361,15.018-3.365,22.649a2.289,2.289,0,1,0,4.579,0Z" transform="translate(-25.99 -42.804)" fill="#35357e"/>
  <path id="Path_67" data-name="Path 67" d="M223.693,295.169c3.222-4.3,6.369-8.631,9.157-13.226,1.537-2.532-2.424-4.83-3.953-2.312-2.79,4.6-5.935,8.93-9.157,13.228-1.773,2.366,2.205,4.644,3.953,2.311Z" transform="translate(-28.225 -35.852)" fill="#35357e"/>
  <path id="Path_68" data-name="Path 68" d="M243.2,316.859c4.577-4.051,7.376-5.375,8.283,1.387.7,5.2.525,10.494,1.058,15.714.977,9.54,5.87,15.926,15.633,10.729q-1.385-1.8-2.773-3.6c-5.151,4.873-4.2,11.65-2.447,17.895,1.9,6.793,9.536,19.636-1.63,21.2-2.914.408-1.67,4.818,1.216,4.415,22.594-3.161-4.455-30.285,6.1-40.271,1.946-1.841-.53-4.791-2.773-3.6-5.827,3.1-7.64.116-8.582-5.517-.932-5.587-.591-11.347-1.221-16.973-1.256-11.2-8.44-11.4-16.1-4.624-2.216,1.96,1.035,5.186,3.237,3.237Z" transform="translate(-30.79 -39.781)" fill="#35357e"/>
  <path id="Path_69" data-name="Path 69" d="M298.261,297.142c.527,8.9-2.744,17.144-3.986,25.845a2.373,2.373,0,0,0,1.6,2.816c8.251,3.075,16.247,6.065,22.391,12.639,2.019,2.161,5.25-1.084,3.237-3.237-6.679-7.146-15.438-10.471-24.412-13.817q.8,1.408,1.6,2.816c1.3-9.133,4.7-17.727,4.151-27.063-.176-2.932-4.754-2.949-4.58,0Z" transform="translate(-37.871 -37.962)" fill="#35357e"/>
  <path id="Path_70" data-name="Path 70" d="M138.268,386.875a18.062,18.062,0,0,1,13.5,2.822q-.412-1.566-.821-3.132c-2.2,4.692-3.112,9.94-6.1,14.244-1.691,2.43,2.28,4.716,3.953,2.311,3.017-4.336,3.895-9.534,6.1-14.244a2.356,2.356,0,0,0-.821-3.132c-5-3.472-11.114-4.295-17.025-3.283-2.907.5-1.673,4.908,1.215,4.414Z" transform="translate(-17.426 -49.176)" fill="#35357e"/>
  <path id="Path_71" data-name="Path 71" d="M244.661,417.846A95.952,95.952,0,0,1,255.5,433.662c1.351,2.627,5.3.31,3.953-2.312-3.127-6.077-7.3-11.425-11.549-16.743-1.845-2.3-5.064.957-3.239,3.239Z" transform="translate(-31.421 -53.264)" fill="#35357e"/>
  <path id="Path_72" data-name="Path 72" d="M273.916,414.707l12.21-18.315c1.644-2.465-2.323-4.754-3.953-2.311q-6.106,9.157-12.21,18.315c-1.644,2.465,2.324,4.756,3.953,2.311Z" transform="translate(-34.697 -50.589)" fill="#35357e"/>
</svg>
