<?xml version="1.0" encoding="UTF-8" standalone="no"?>
<!-- Created with Inkscape (http://www.inkscape.org/) -->

<svg
   xmlns:dc="http://purl.org/dc/elements/1.1/"
   xmlns:cc="http://creativecommons.org/ns#"
   xmlns:rdf="http://www.w3.org/1999/02/22-rdf-syntax-ns#"
   xmlns:svg="http://www.w3.org/2000/svg"
   xmlns="http://www.w3.org/2000/svg"
   xmlns:sodipodi="http://sodipodi.sourceforge.net/DTD/sodipodi-0.dtd"
   xmlns:inkscape="http://www.inkscape.org/namespaces/inkscape"
   width="550mm"
   height="623.75891mm"
   viewBox="0 0 550 623.75891"
   version="1.1"
   id="svg1272"
   inkscape:version="0.92.2 (5c3e80d, 2017-08-06)"
   sodipodi:docname="html.svg">
  <defs
     id="defs1266" />
  <sodipodi:namedview
     id="base"
     pagecolor="#ffffff"
     bordercolor="#666666"
     borderopacity="1.0"
     inkscape:pageopacity="0.0"
     inkscape:pageshadow="2"
     inkscape:zoom="0.0875"
     inkscape:cx="1128.2108"
     inkscape:cy="285.34571"
     inkscape:document-units="mm"
     inkscape:current-layer="layer1"
     showgrid="false"
     inkscape:pagecheckerboard="true"
     fit-margin-top="0"
     fit-margin-left="0"
     fit-margin-right="0"
     fit-margin-bottom="0"
     inkscape:window-width="1920"
     inkscape:window-height="1009"
     inkscape:window-x="-4"
     inkscape:window-y="-4"
     inkscape:window-maximized="1" />
  <metadata
     id="metadata1269">
    <rdf:RDF>
      <cc:Work
         rdf:about="">
        <dc:format>image/svg+xml</dc:format>
        <dc:type
           rdf:resource="http://purl.org/dc/dcmitype/StillImage" />
        <dc:title></dc:title>
      </cc:Work>
    </rdf:RDF>
  </metadata>
  <g
     inkscape:label="Layer 1"
     inkscape:groupmode="layer"
     id="layer1"
     transform="translate(355.13096,267.36754)">
    <g
       id="g1100"
       transform="matrix(1.1766302,0,0,1.1766302,-3066.6962,-53.611618)">
      <path
         id="path878"
         d="m 2771.9544,-181.66789 -42.5843,477.05622 -191.4198,53.06692 -190.8921,-52.99363 -42.5404,-477.12951 z"
         inkscape:connector-curvature="0"
         style="fill:#e44d26;stroke-width:1.83229458" />
      <path
         id="path880"
         d="m 2538.2361,307.89191 154.6768,-42.88119 36.3894,-407.66723 h -191.0662 z"
         inkscape:connector-curvature="0"
         style="fill:#f16529;stroke-width:1.83229458" />
      <path
         id="path882"
         d="m 2455.453,-25.618687 h 82.7831 v -58.51799 h -146.7356 l 1.3998,15.6991 14.3835,161.260247 h 130.9523 V 34.304673 h -77.4346 z m 13.1889,147.701267 h -58.7434 l 8.1977,91.88225 119.8706,33.27447 0.2693,-0.0733 v -60.88349 l -0.2565,0.0678 -65.1711,-17.59736 z"
         inkscape:connector-curvature="0"
         style="fill:#ebebeb;stroke-width:1.83229458" />
      <path
         id="path886"
         d="m 2538.0346,92.82267 h 72.0586 l -6.7941,75.89364 -65.2664,17.61568 v 60.87982 l 119.9658,-33.24698 0.8795,-9.88706 13.7533,-154.059337 1.4273,-15.71376 h -136.024 z m 0,-118.584277 v 0.14292 h 141.3487 l 1.1726,-13.15221 2.6678,-29.66668 1.3981,-15.6991 h -146.5872 v 58.3769 z"
         inkscape:connector-curvature="0"
         style="fill:#ffffff;stroke-width:1.83229458" />
    </g>
  </g>
</svg>
