<svg xmlns="http://www.w3.org/2000/svg" width="550mm" height="2357.514" viewBox="0 0 550 623.759"><path d="m2771.954-181.668-42.584 477.056-191.42 53.067-190.892-52.993-42.54-477.13z" style="fill:#e44d26;stroke-width:1.83229458" transform="translate(-2711.565 213.756) scale(1.17663)"/><path d="m2538.236 307.892 154.677-42.881 36.39-407.668h-191.067z" style="fill:#f16529;stroke-width:1.83229458" transform="translate(-2711.565 213.756) scale(1.17663)"/><path d="M2455.453-25.619h82.783v-58.518h-146.735l1.4 15.7 14.383 161.26h130.952V34.305h-77.434zm13.189 147.702h-58.743l8.197 91.882 119.87 33.274.27-.073v-60.883l-.256.067-65.171-17.597z" style="fill:#ebebeb;stroke-width:1.83229458" transform="translate(-2711.565 213.756) scale(1.17663)"/><path d="M2538.035 92.823h72.058l-6.794 75.893-65.266 17.616v60.88l119.965-33.247.88-9.887 13.753-154.06 1.428-15.713h-136.024zm0-118.585v.143h141.348l1.173-13.152 2.668-29.667 1.398-15.699h-146.587v58.377z" style="fill:#fff;stroke-width:1.83229458" transform="translate(-2711.565 213.756) scale(1.17663)"/></svg>