<?xml version="1.0" encoding="UTF-8" standalone="no"?>
<!-- Created with Inkscape (http://www.inkscape.org/) -->

<svg
   xmlns:dc="http://purl.org/dc/elements/1.1/"
   xmlns:cc="http://creativecommons.org/ns#"
   xmlns:rdf="http://www.w3.org/1999/02/22-rdf-syntax-ns#"
   xmlns:svg="http://www.w3.org/2000/svg"
   xmlns="http://www.w3.org/2000/svg"
   xmlns:sodipodi="http://sodipodi.sourceforge.net/DTD/sodipodi-0.dtd"
   xmlns:inkscape="http://www.inkscape.org/namespaces/inkscape"
   width="550mm"
   height="622.49719mm"
   viewBox="0 0 550 622.49719"
   version="1.1"
   id="svg988"
   inkscape:version="0.92.2 (5c3e80d, 2017-08-06)"
   sodipodi:docname="javascript.svg">
  <defs
     id="defs982" />
  <sodipodi:namedview
     id="base"
     pagecolor="#ffffff"
     bordercolor="#666666"
     borderopacity="1.0"
     inkscape:pageopacity="0.0"
     inkscape:pageshadow="2"
     inkscape:zoom="0.0875"
     inkscape:cx="-87.898573"
     inkscape:cy="169.74828"
     inkscape:document-units="mm"
     inkscape:current-layer="layer1"
     showgrid="false"
     fit-margin-top="0"
     fit-margin-left="0"
     fit-margin-right="0"
     fit-margin-bottom="0"
     inkscape:window-width="1920"
     inkscape:window-height="1009"
     inkscape:window-x="-4"
     inkscape:window-y="-4"
     inkscape:window-maximized="1" />
  <metadata
     id="metadata985">
    <rdf:RDF>
      <cc:Work
         rdf:about="">
        <dc:format>image/svg+xml</dc:format>
        <dc:type
           rdf:resource="http://purl.org/dc/dcmitype/StillImage" />
        <dc:title></dc:title>
      </cc:Work>
    </rdf:RDF>
  </metadata>
  <g
     inkscape:label="Layer 1"
     inkscape:groupmode="layer"
     id="layer1"
     transform="translate(586.45237,206.26049)">
    <g
       id="g980"
       transform="matrix(1.1704618,0,0,1.1704618,2438.0757,216.52927)">
      <path
         id="path946"
         d="m -2114.1468,-361.2162 h -469.9 l 44.0531,477.70521 190.8704,54.13375 190.8705,-54.13375 z"
         inkscape:connector-curvature="0"
         style="fill:#e6a329;stroke-width:0.26458332" />
      <path
         id="path948"
         d="m -2349.1233,-322.29599 v 452.4375 l 154.649,-43.815004 37.6237,-408.622496 z"
         inkscape:connector-curvature="0"
         style="fill:#f1bf22;stroke-width:0.26458332" />
      <path
         id="path950"
         d="m -2226.092,-263.69078 h -237.7811 l -16.5629,178.85833 0.344,-1.11125 h 202.0094 l -6.5882,75.670832 -64.4525,18.5472917 -65.405,-18.8383327 -3.9158,-45.799375 h -59.3725 l 8.4667,91.519374 120.2266,34.13125 120.2796,-34.13125 16.5629,-179.62562 h -214.3918 l 2.7516,-59.84875 h 148.7488 l 2.2225,34.29 h 59.9016 z"
         inkscape:connector-curvature="0"
         style="fill:#ffffff;stroke-width:0.26458332" />
      <path
         id="path952"
         d="m -2349.0703,-263.69078 h -114.8028 l -16.5629,178.85833 0.344,-1.11125 h 131.0217 v -58.34062 h -69.2415 l 2.7517,-59.84875 h 66.4898 z m -69.2415,207.327496 h -59.5048 l 8.4667,91.466457 120.2266,34.078333 V 8.3273404 l -65.405,-18.8912494 z"
         inkscape:connector-curvature="0"
         style="fill:#ebebeb;stroke-width:0.26458332" />
    </g>
  </g>
</svg>
