<?xml version="1.0" encoding="UTF-8" standalone="no"?>
<!-- Created with Inkscape (http://www.inkscape.org/) -->

<svg
   xmlns:dc="http://purl.org/dc/elements/1.1/"
   xmlns:cc="http://creativecommons.org/ns#"
   xmlns:rdf="http://www.w3.org/1999/02/22-rdf-syntax-ns#"
   xmlns:svg="http://www.w3.org/2000/svg"
   xmlns="http://www.w3.org/2000/svg"
   xmlns:sodipodi="http://sodipodi.sourceforge.net/DTD/sodipodi-0.dtd"
   xmlns:inkscape="http://www.inkscape.org/namespaces/inkscape"
   width="550mm"
   height="494.49472mm"
   viewBox="0 0 550 494.49472"
   version="1.1"
   id="svg988"
   inkscape:version="0.92.2 (5c3e80d, 2017-08-06)"
   sodipodi:docname="react.svg">
  <defs
     id="defs982" />
  <sodipodi:namedview
     id="base"
     pagecolor="#ffffff"
     bordercolor="#666666"
     borderopacity="1.0"
     inkscape:pageopacity="0.0"
     inkscape:pageshadow="2"
     inkscape:zoom="0.0875"
     inkscape:cx="-1208.2208"
     inkscape:cy="2385.9177"
     inkscape:document-units="mm"
     inkscape:current-layer="layer1"
     showgrid="false"
     fit-margin-top="0"
     fit-margin-left="0"
     fit-margin-right="0"
     fit-margin-bottom="0"
     inkscape:window-width="1920"
     inkscape:window-height="1009"
     inkscape:window-x="-4"
     inkscape:window-y="-4"
     inkscape:window-maximized="1"
     inkscape:pagecheckerboard="true" />
  <metadata
     id="metadata985">
    <rdf:RDF>
      <cc:Work
         rdf:about="">
        <dc:format>image/svg+xml</dc:format>
        <dc:type
           rdf:resource="http://purl.org/dc/dcmitype/StillImage" />
        <dc:title></dc:title>
      </cc:Work>
    </rdf:RDF>
  </metadata>
  <g
     inkscape:label="Layer 1"
     inkscape:groupmode="layer"
     id="layer1"
     transform="translate(699.35659,-508.10347)">
    <g
       id="g1720"
       transform="matrix(0.83666185,0,0,0.83666185,-114.23161,163.76253)">
      <path
         id="path815"
         d="m -699.35659,706.01931 c 0,49.64606 48.47822,95.99013 124.90448,122.11406 -15.262,76.8319 -2.73357,138.76094 39.10709,162.89024 43.00591,24.80369 107.07685,7.63487 167.88972,-45.52504 59.27815,51.01285 119.18672,71.08833 160.99121,46.88924 42.96716,-24.87341 56.033,-91.00098 40.34986,-170.23315 79.604219,-26.31771 124.131942,-65.83561 124.131942,-116.13535 0,-48.49373 -48.566068,-90.44549 -123.964002,-116.40148 16.88457,-82.50573 2.57854,-142.93104 -40.99579,-168.05766 -42.0086,-24.2249 -102.61478,-3.11079 -162.76363,49.23525 -62.57755,-55.56018 -122.5843,-72.52226 -166.11213,-47.32589 -41.96985,24.29467 -53.94536,87.3502 -38.63427,165.60314 -73.84771,25.74671 -124.90448,68.64928 -124.90448,116.94664 z"
         inkscape:connector-curvature="0"
         style="fill:#ffffff;stroke-width:2.58371377" />
      <path
         id="path817"
         d="m -181.91364,615.39296 a 391.08126,391.08126 0 0 0 -18.79394,-5.92187 355.26065,355.26065 0 0 0 2.9041,-12.8178 c 14.22592,-69.05751 4.92456,-124.69003 -26.83962,-143.00339 -30.45424,-17.56409 -80.26307,0.74927 -130.56798,44.52514 a 390.49217,390.49217 0 0 0 -14.53597,13.33971 355.44926,355.44926 0 0 0 -9.67343,-8.93448 c -52.72068,-46.81173 -105.56538,-66.5358 -137.29596,-48.16818 -30.42582,17.61318 -39.43781,69.9153 -26.63034,135.36077 a 389.90825,389.90825 0 0 0 4.3148,19.33651 c -7.47727,2.12381 -14.69875,4.38715 -21.6076,6.79517 -61.8076,21.54817 -101.28158,55.32248 -101.28158,90.35247 0,36.18233 42.37291,72.47317 106.75389,94.47608 a 331.8522,331.8522 0 0 0 15.78649,4.93489 381.90649,381.90649 0 0 0 -4.58609,20.84282 c -12.21064,64.30864 -2.67415,115.37057 27.67157,132.87523 31.34303,18.07308 83.94745,-0.50382 135.17216,-45.27958 4.04867,-3.53969 8.11286,-7.29382 12.18221,-11.22882 a 383.26811,383.26811 0 0 0 15.78132,14.39904 c 49.61764,42.69587 98.62036,59.93699 128.94024,42.38582 31.31461,-18.12733 41.48927,-72.98216 28.27616,-139.72207 -1.00765,-5.09767 -2.18324,-10.30385 -3.50093,-15.60563 3.69471,-1.09033 7.31966,-2.21683 10.85676,-3.38984 66.92853,-22.17343 110.471855,-58.02246 110.471855,-94.68794 0,-35.15659 -40.745165,-69.15827 -103.798115,-90.86405 z"
         inkscape:connector-curvature="0"
         style="fill:#53c1de;stroke-width:2.58371377" />
      <path
         id="path819"
         d="m -196.43153,777.27297 c -3.19089,1.05674 -6.46704,2.0773 -9.8052,3.06687 -7.38942,-23.39037 -17.36255,-48.26378 -29.56285,-73.95881 11.6448,-25.08786 21.23038,-49.64089 28.4131,-72.8814 5.97096,1.73109 11.76882,3.55261 17.35481,5.47747 54.02545,18.59499 86.97814,46.09346 86.97814,67.27991 0,22.56874 -35.59066,51.86805 -93.37542,71.01596 z m -23.97687,47.51191 c 5.84178,29.51118 6.67632,56.19319 2.80592,77.05151 -3.47768,18.74226 -10.46921,31.2371 -19.11432,36.24176 -18.39862,10.65007 -57.746,-3.19347 -100.17575,-39.70652 -4.86513,-4.18561 -9.76644,-8.65544 -14.68066,-13.38363 16.45051,-17.99299 32.89068,-38.91073 48.93554,-62.13832 28.22449,-2.50362 54.88842,-6.59881 79.06939,-12.18738 1.18851,4.80571 2.24783,9.51582 3.15988,14.12258 z m -242.48154,111.45366 c -17.97489,6.34819 -32.29125,6.52905 -40.94411,1.5399 -18.41671,-10.61907 -26.06967,-51.62261 -15.62888,-106.61695 a 357.86245,357.86245 0 0 1 4.26313,-19.38302 c 23.91227,5.28886 50.38241,9.09467 78.67408,11.38901 16.1508,22.72893 33.06637,43.62084 50.11371,61.91611 a 307.10797,307.10797 0 0 1 -11.12288,10.24184 c -22.65142,19.80159 -45.34935,33.84666 -65.35246,40.91311 z m -84.21098,-159.10509 c -28.46736,-9.73027 -51.97657,-22.37496 -68.09119,-36.172 -14.47913,-12.40182 -21.79104,-24.71322 -21.79104,-34.70444 0,-21.25621 31.69441,-48.37229 84.55461,-66.80192 a 359.84932,359.84932 0 0 1 20.09355,-6.32235 c 7.30674,23.76242 16.88973,48.60741 28.45444,73.73144 -11.71456,25.49867 -21.43449,50.73897 -28.80841,74.78043 a 307.22424,307.22424 0 0 1 -14.41196,-4.51116 z m 28.22966,-192.1508 c -10.97303,-56.07434 -3.68696,-98.37232 14.64965,-108.98621 19.53288,-11.30634 62.71966,4.81604 108.23953,45.23307 2.90926,2.58372 5.83144,5.28887 8.75879,8.08703 -16.9595,18.2126 -33.72005,38.9469 -49.73133,61.54406 -27.45712,2.54496 -53.74124,6.63239 -77.90413,12.10728 a 365.6601,365.6601 0 0 1 -4.01251,-17.98781 z m 251.82683,62.18224 a 793.15363,793.15363 0 0 0 -17.7527,-29.19596 c 18.62858,2.35118 36.47429,5.47747 53.23226,9.30395 -5.03049,16.12496 -11.30117,32.98627 -18.68542,50.27132 a 869.213,869.213 0 0 0 -16.79414,-30.37931 z M -369.7393,547.139 c 11.50269,12.46125 23.02347,26.37713 34.35564,41.47377 a 734.40773,734.40773 0 0 0 -69.00066,-0.0155 c 11.3425,-14.95712 22.96146,-28.85233 34.64502,-41.45827 z m -103.35372,100.19642 a 736.97852,736.97852 0 0 0 -16.47893,30.19069 c -7.26282,-17.22562 -13.47665,-34.16186 -18.55106,-50.51677 16.6572,-3.7283 34.42023,-6.7745 52.92737,-9.08692 a 733.23214,733.23214 0 0 0 -17.89738,29.413 z m 18.42963,149.03636 c -19.11948,-2.13415 -37.15122,-5.02532 -53.80326,-8.65027 5.15451,-16.64429 11.50528,-33.94484 18.92312,-51.53993 a 732.46736,732.46736 0 0 0 16.55127,30.20879 737.05604,737.05604 0 0 0 18.32887,29.98141 z m 85.61394,70.76534 c -11.82049,-12.7558 -23.60998,-26.86287 -35.12559,-42.03703 11.17715,0.43924 22.57391,0.66143 34.1567,0.66143 11.90058,0 23.66423,-0.26612 35.24185,-0.78286 -11.36834,15.45061 -22.84778,29.57835 -34.27296,42.15846 z m 119.03686,-131.85209 c 7.80282,17.78629 14.38095,34.99382 19.60522,51.35648 -16.92849,3.86266 -35.2031,6.97345 -54.45952,9.28329 a 872.099,872.099 0 0 0 17.92323,-29.70754 792.24933,792.24933 0 0 0 16.93107,-30.93223 z m -38.53609,18.47356 a 817.68858,817.68858 0 0 1 -28.00746,45.18915 c -17.32121,1.2376 -35.22118,1.87578 -53.4622,1.87578 -18.16609,0 -35.8387,-0.56583 -52.85762,-1.66908 a 707.41567,707.41567 0 0 1 -28.53195,-45.25891 701.0494,701.0494 0 0 1 -24.907,-47.0391 707.5862,707.5862 0 0 1 24.83207,-47.06493 v 0.005 a 700.83754,700.83754 0 0 1 28.30717,-45.06514 c 17.36256,-1.31252 35.16434,-1.99979 53.15991,-1.99979 18.07566,0 35.9007,0.69243 53.25809,2.01529 a 751.09594,751.09594 0 0 1 28.1289,44.9127 817.53355,817.53355 0 0 1 25.16795,46.84273 751.35948,751.35948 0 0 1 -25.08528,47.25613 z m 51.44949,-278.50368 c 19.54838,11.27533 27.15225,56.74094 14.86928,116.3653 a 329.4881,329.4881 0 0 1 -2.62506,11.60605 c -24.21973,-5.58858 -50.52194,-9.74836 -78.05916,-12.33207 -16.04228,-22.84261 -32.66331,-43.61309 -49.34893,-61.59057 a 366.68066,366.68066 0 0 1 13.42498,-12.31398 c 43.10151,-37.51036 83.38419,-52.3202 101.73889,-41.73473 z"
         inkscape:connector-curvature="0"
         style="fill:#ffffff;stroke-width:2.58371377" />
      <path
         id="path821"
         d="m -370.01834,654.12542 c 28.7929,0 52.13159,23.34127 52.13159,52.13159 0,28.79291 -23.33869,52.13418 -52.13159,52.13418 -28.79033,0 -52.1316,-23.34127 -52.1316,-52.13418 0,-28.79032 23.34127,-52.13159 52.1316,-52.13159"
         inkscape:connector-curvature="0"
         style="fill:#53c1de;stroke-width:2.58371377" />
    </g>
  </g>
</svg>
