<?xml version="1.0" encoding="UTF-8" standalone="no"?>
<!-- Created with Inkscape (http://www.inkscape.org/) -->

<svg
   xmlns:dc="http://purl.org/dc/elements/1.1/"
   xmlns:cc="http://creativecommons.org/ns#"
   xmlns:rdf="http://www.w3.org/1999/02/22-rdf-syntax-ns#"
   xmlns:svg="http://www.w3.org/2000/svg"
   xmlns="http://www.w3.org/2000/svg"
   xmlns:sodipodi="http://sodipodi.sourceforge.net/DTD/sodipodi-0.dtd"
   xmlns:inkscape="http://www.inkscape.org/namespaces/inkscape"
   width="600.00006mm"
   height="449.74506mm"
   viewBox="0 0 600.00006 449.74505"
   version="1.1"
   id="svg988"
   inkscape:version="0.92.2 (5c3e80d, 2017-08-06)"
   sodipodi:docname="sass.svg">
  <defs
     id="defs982" />
  <sodipodi:namedview
     id="base"
     pagecolor="#ffffff"
     bordercolor="#666666"
     borderopacity="1.0"
     inkscape:pageopacity="0.0"
     inkscape:pageshadow="2"
     inkscape:zoom="0.0875"
     inkscape:cx="645.32973"
     inkscape:cy="2076.2479"
     inkscape:document-units="mm"
     inkscape:current-layer="layer1"
     showgrid="false"
     fit-margin-top="0"
     fit-margin-left="0"
     fit-margin-right="0"
     fit-margin-bottom="0"
     inkscape:window-width="1920"
     inkscape:window-height="1009"
     inkscape:window-x="-4"
     inkscape:window-y="-4"
     inkscape:window-maximized="1" />
  <metadata
     id="metadata985">
    <rdf:RDF>
      <cc:Work
         rdf:about="">
        <dc:format>image/svg+xml</dc:format>
        <dc:type
           rdf:resource="http://purl.org/dc/dcmitype/StillImage" />
        <dc:title></dc:title>
      </cc:Work>
    </rdf:RDF>
  </metadata>
  <g
     inkscape:label="Layer 1"
     inkscape:groupmode="layer"
     id="layer1"
     transform="translate(780.45234,-470.91967)">
    <path
       id="path853"
       d="m -263.94347,729.17594 c -20.97839,0.1183 -39.1441,5.1567 -54.37978,12.65849 -5.62552,-11.13379 -11.25101,-20.86239 -12.1874,-28.12739 -1.05482,-8.4383 -2.34402,-13.5962 -1.05482,-23.674 1.288,-10.0801 7.14791,-24.3783 7.14791,-25.5503 -0.1184,-1.0548 -1.2903,-6.2115 -13.36051,-6.3287 -12.07018,-0.1172 -22.50199,2.344 -23.67399,5.5083 -1.17189,3.1644 -3.51591,10.4306 -5.03949,17.9313 -2.10952,11.0166 -24.1427,50.0434 -36.68281,70.55309 -4.102,-7.96949 -7.61791,-15.0014 -8.32231,-20.62809 -1.0536,-8.437 -2.34389,-13.5949 -1.0536,-23.6727 1.28921,-10.0802 7.14912,-24.3771 7.14912,-25.5491 -0.11721,-1.0548 -1.28921,-6.2116 -13.35946,-6.3287 -12.0724,-0.1172 -22.5018,2.344 -23.6738,5.5083 -1.172,3.1643 -2.4613,10.665 -5.0396,17.9313 -2.4624,7.2662 -31.7618,72.4282 -39.3795,89.4218 -3.8676,8.67259 -7.2652,15.58729 -9.7275,20.27521 -2.4612,4.68799 -0.1172,0.3516 -0.3516,0.82039 -2.1096,3.98481 -3.2815,6.21149 -3.2815,6.21149 v 0.1184 c -1.6408,2.92992 -3.3988,5.74141 -4.2203,5.74141 -0.5861,0 -1.758,-7.8522 0.2344,-18.6331 4.3362,-22.62039 14.884,-57.8957 14.768,-59.18491 0,-0.586 1.9912,-6.79868 -6.7986,-9.96189 -8.5554,-3.1643 -11.6014,2.10959 -12.3058,2.10959 -0.7031,0 -1.2891,1.8752 -1.2891,1.8752 0,0 9.493,-39.72889 -18.1657,-39.72889 -17.3452,0 -41.2536,18.8688 -53.0905,36.0969 -7.5007,4.102 -23.4396,12.7734 -40.3161,22.03321 -6.4459,3.51589 -13.1261,7.26628 -19.4548,10.66498 l -1.288,-1.4088 c -33.5186,-35.74529 -95.5162,-61.05989 -92.9378,-109.11109 0.9376,-17.4624 7.0319,-63.52111 119.0741,-119.30725 91.7658,-45.70712 165.2487,-33.16696 178.0222,-5.27389 18.1655,39.84723 -39.2614,113.91614 -134.6591,124.58114 -36.3313,4.102 -55.4357,-9.9617 -60.2396,-15.2356 -5.0395,-5.5083 -5.7427,-5.7427 -7.6179,-4.688 -3.0471,1.6408 -1.1719,6.5631 0,9.4931 2.8128,7.3835 14.5326,20.5096 34.4562,27.0727 17.4613,5.7426 60.1224,8.907 111.6894,-11.0166 57.7784,-22.3848 102.89966,-84.49961 89.65626,-136.41822 -13.47776,-52.85619 -101.14166,-70.20145 -184.00046,-40.78482 -49.3414,17.57966 -102.7836,45.00394 -141.2244,80.98364 -45.7071,42.66 -52.9734,79.9288 -49.9263,95.399 10.6662,55.2002 86.7264,91.17981 117.1978,117.78369 -1.5236,0.8192 -2.9299,1.63962 -4.2191,2.34392 -15.2357,7.49958 -73.2486,37.85489 -87.7811,69.96588 -16.4077,36.33132 2.5783,62.4676 15.2357,65.98362 39.144,10.8993 79.2256,-8.6727 100.9072,-40.90212 21.5632,-32.2294 18.9861,-74.06899 9.0243,-93.1722 l -0.3528,-0.70319 11.9542,-7.0318 c 7.7362,-4.5707 15.354,-8.78991 22.0331,-12.4242 -3.7491,10.1962 -6.4458,22.2676 -7.851,39.84731 -1.6408,20.6279 6.7974,47.3479 17.9312,57.8957 4.9223,4.56949 10.7822,4.68778 14.4153,4.68778 12.8918,0 18.7517,-10.66609 25.1975,-23.43949 7.9695,-15.58729 15.0014,-33.63571 15.0014,-33.63571 0,0 -8.7899,48.8714 15.2357,48.8714 8.7898,0 17.5796,-11.36819 21.5644,-17.228 v 0.1171 c 0,0 0.2344,-0.35149 0.7031,-1.17199 a 42.343544,42.343544 0 0 0 1.4064,-2.22549 v -0.2344 c 3.516,-6.0943 11.3681,-20.04092 23.0879,-43.1288 15.1174,-29.76822 29.6511,-67.03711 29.6511,-67.03711 0,0 1.4063,9.14141 5.7427,24.14281 2.5772,8.9082 8.2026,18.63439 12.539,28.1274 -3.516,4.92228 -5.6256,7.73618 -5.6256,7.73618 l 0.1173,0.11721 c -2.8116,3.75031 -5.9771,7.7362 -9.2575,11.7198 -11.9541,14.29811 -26.2523,30.5898 -28.1275,35.27769 -2.2266,5.50711 -1.7579,9.609 2.5784,12.89171 3.1643,2.344 8.7899,2.8116 14.767,2.344 10.7821,-0.7044 18.2827,-3.39881 22.0331,-5.0406 5.8599,-2.10971 12.54014,-5.27389 18.98606,-9.96191 11.71979,-8.6714 18.86878,-20.9772 18.1656,-37.3848 -0.3516,-9.02439 -3.28152,-17.9314 -6.9147,-26.36949 1.05479,-1.5236 2.11079,-3.0484 3.16439,-4.68799 18.51729,-27.07381 32.8154,-56.84091 32.8154,-56.84091 0,0 1.40639,9.1414 5.74259,24.1427 2.22571,7.6179 6.68031,15.94011 10.66501,24.14399 -17.34521,14.1809 -28.24461,30.5885 -31.99489,41.3707 -6.9147,19.92371 -1.52361,28.9479 8.67259,31.0574 4.56959,0.93771 11.1338,-1.172 16.05489,-3.2815 6.0943,-1.99228 13.47782,-5.39228 20.27642,-10.43059 11.7198,-8.67261 22.97078,-20.74399 22.38468,-37.03449 -0.3515,-7.50062 -2.34389,-14.88411 -5.0395,-21.91592 14.76701,-6.09438 33.86911,-9.6103 58.1301,-6.6803 52.153,6.0942 62.46641,38.6752 60.47531,52.27021 -1.99239,13.59609 -12.8918,21.0956 -16.52611,23.43949 -3.63318,2.22681 -4.8051,3.04832 -4.4535,4.68802 0.46882,2.46229 2.1095,2.34389 5.27392,1.87619 4.33628,-0.7043 27.4243,-11.1337 28.3618,-36.21281 1.40639,-32.23408 -29.18222,-67.39349 -83.44472,-67.04299 z m -402.22264,135.5978 c -17.2281,18.86879 -41.488,26.0178 -51.8014,19.9236 -11.1338,-6.44591 -6.7987,-34.22179 14.4153,-54.2626 12.8917,-12.18861 29.651,-23.43949 40.6676,-30.35419 2.4612,-1.5236 6.2115,-3.74912 10.665,-6.44591 0.7032,-0.4676 1.172,-0.70311 1.172,-0.70311 0.8204,-0.46878 1.7579,-1.05489 2.6955,-1.64078 7.8523,28.59619 0.3516,53.67649 -17.814,73.48299 z m 125.9875,-85.67161 c -5.9771,14.64972 -18.6344,52.27021 -26.2523,50.16061 -6.5642,-1.758 -10.5478,-30.237 -1.2903,-58.36451 4.6879,-14.18209 14.6497,-31.0573 20.5096,-37.62159 9.4942,-10.5478 19.8064,-14.0637 22.3859,-9.7274 3.0472,5.6267 -11.6025,46.41149 -15.3529,55.55289 z m 103.9545,49.6918 c -2.5785,1.2904 -4.9224,2.22681 -5.9771,1.52482 -0.8205,-0.46882 1.0536,-2.22671 1.0536,-2.22671 0,0 13.0089,-13.94661 18.1656,-20.3925 2.93,-3.74909 6.44585,-8.0855 10.19616,-13.0089 v 1.40629 c 0,16.87531 -16.17206,28.1264 -23.43826,32.697 z m 80.16204,-18.28279 c -1.87529,-1.40639 -1.6397,-5.7426 4.68781,-19.3376 2.46239,-5.3911 8.08669,-14.4153 17.8141,-22.97081 1.172,3.51602 1.87629,6.91351 1.758,10.07901 -0.116,21.0956 -15.11739,28.9479 -24.25991,32.2294 z"
       inkscape:connector-curvature="0"
       style="fill:#cf649a;stroke-width:1.1719774" />
  </g>
</svg>
