<svg xmlns="http://www.w3.org/2000/svg" width="2267.717" height="1699.824" viewBox="0 0 600 449.745"><path d="M-263.943 729.176c-20.979.118-39.145 5.157-54.38 12.658-5.626-11.133-11.251-20.862-12.188-28.127-1.054-8.438-2.344-13.596-1.054-23.674 1.288-10.08 7.147-24.378 7.147-25.55-.118-1.055-1.29-6.212-13.36-6.329-12.07-.117-22.502 2.344-23.674 5.508-1.172 3.165-3.516 10.43-5.04 17.932-2.11 11.016-24.142 50.043-36.682 70.553-4.102-7.97-7.618-15.002-8.323-20.628-1.053-8.437-2.344-13.595-1.053-23.673 1.289-10.08 7.149-24.377 7.149-25.55-.117-1.054-1.29-6.21-13.36-6.328-12.072-.117-22.501 2.344-23.673 5.508-1.172 3.165-2.462 10.665-5.04 17.932-2.462 7.266-31.762 72.428-39.38 89.422-3.867 8.672-7.265 15.587-9.727 20.275-2.461 4.688-.117.351-.352.82-2.11 3.985-3.281 6.212-3.281 6.212v.118c-1.64 2.93-3.399 5.741-4.22 5.741-.587 0-1.758-7.852.234-18.633 4.336-22.62 14.884-57.895 14.768-59.185 0-.586 1.991-6.798-6.799-9.961-8.555-3.165-11.601 2.11-12.305 2.11-.704 0-1.29 1.874-1.29 1.874s9.493-39.729-18.165-39.729c-17.345 0-41.254 18.87-53.09 36.097-7.501 4.102-23.44 12.774-40.317 22.034-6.446 3.515-13.126 7.266-19.455 10.665l-1.288-1.41c-33.518-35.745-95.516-61.06-92.937-109.11.937-17.463 7.031-63.521 119.074-119.308 91.765-45.707 165.248-33.167 178.022-5.274 18.165 39.848-39.262 113.917-134.66 124.582-36.33 4.102-55.435-9.962-60.239-15.236-5.04-5.508-5.743-5.743-7.618-4.688-3.047 1.64-1.172 6.563 0 9.493 2.813 7.384 14.533 20.51 34.456 27.073 17.462 5.742 60.123 8.907 111.69-11.017 57.778-22.385 102.9-84.5 89.656-136.418-13.478-52.856-101.142-70.201-184-40.785-49.342 17.58-102.784 45.004-141.225 80.984-45.707 42.66-52.973 79.929-49.926 95.399 10.666 55.2 86.726 91.18 117.198 117.784-1.524.819-2.93 1.64-4.22 2.343-15.235 7.5-73.248 37.855-87.78 69.966-16.408 36.332 2.578 62.468 15.235 65.984 39.144 10.9 79.226-8.673 100.907-40.902 21.564-32.23 18.987-74.07 9.025-93.172l-.353-.704 11.954-7.031c7.736-4.571 15.354-8.79 22.033-12.425-3.749 10.197-6.446 22.268-7.85 39.848-1.642 20.628 6.797 47.348 17.93 57.895 4.923 4.57 10.783 4.688 14.416 4.688 12.892 0 18.751-10.666 25.197-23.44 7.97-15.587 15.002-33.635 15.002-33.635s-8.79 48.871 15.235 48.871c8.79 0 17.58-11.368 21.565-17.228v.118s.234-.352.703-1.172a42.344 42.344 0 0 0 1.406-2.226v-.234c3.516-6.095 11.368-20.041 23.088-43.13 15.118-29.767 29.651-67.036 29.651-67.036s1.407 9.141 5.743 24.143c2.577 8.908 8.203 18.634 12.539 28.127-3.516 4.922-5.626 7.736-5.626 7.736l.118.117c-2.812 3.75-5.977 7.737-9.258 11.72-11.954 14.298-26.252 30.59-28.127 35.278-2.227 5.507-1.758 9.609 2.578 12.892 3.164 2.344 8.79 2.811 14.767 2.344 10.782-.705 18.283-3.4 22.033-5.041 5.86-2.11 12.54-5.274 18.986-9.962 11.72-8.671 18.869-20.977 18.166-37.385-.352-9.024-3.282-17.931-6.915-26.37 1.055-1.523 2.11-3.048 3.165-4.687 18.517-27.074 32.815-56.841 32.815-56.841s1.406 9.141 5.743 24.143c2.225 7.617 6.68 15.94 10.665 24.144-17.346 14.18-28.245 30.588-31.995 41.37-6.915 19.924-1.524 28.948 8.672 31.058 4.57.937 11.134-1.172 16.055-3.282 6.094-1.992 13.478-5.392 20.277-10.43 11.72-8.673 22.97-20.744 22.384-37.035-.351-7.5-2.344-14.884-5.04-21.916 14.768-6.094 33.87-9.61 58.13-6.68 52.154 6.094 62.467 38.675 60.476 52.27-1.992 13.596-12.892 21.096-16.526 23.44-3.633 2.226-4.805 3.048-4.453 4.688.468 2.462 2.109 2.343 5.273 1.876 4.337-.705 27.425-11.134 28.362-36.213 1.407-32.234-29.182-67.394-83.444-67.043zm-402.223 135.598c-17.228 18.869-41.488 26.018-51.802 19.923-11.133-6.446-6.798-34.221 14.416-54.262 12.891-12.189 29.65-23.44 40.667-30.354 2.462-1.524 6.212-3.75 10.665-6.446a12.486 12.486 0 0 1 1.172-.703c.82-.47 1.758-1.055 2.696-1.641 7.852 28.596.351 53.676-17.814 73.483zm125.987-85.672c-5.977 14.65-18.634 52.27-26.252 50.16-6.564-1.757-10.548-30.236-1.29-58.364 4.688-14.182 14.65-31.057 20.51-37.621 9.494-10.548 19.806-14.064 22.385-9.728 3.047 5.627-11.602 46.412-15.353 55.553zm103.955 49.692c-2.579 1.29-4.923 2.227-5.977 1.525-.82-.47 1.053-2.227 1.053-2.227s13.01-13.947 18.166-20.392c2.93-3.75 6.446-8.086 10.196-13.01v1.407c0 16.875-16.172 28.126-23.438 32.697zm80.162-18.283c-1.875-1.406-1.64-5.742 4.688-19.337 2.462-5.392 8.086-14.416 17.814-22.971 1.172 3.516 1.876 6.913 1.758 10.079-.116 21.095-15.118 28.948-24.26 32.23z" style="fill:#cf649a;stroke-width:1.1719774" transform="translate(780.452 -470.92)"/></svg>